<svg width="767" height="150" viewBox="0 0 767 150" fill="none" xmlns="http://www.w3.org/2000/svg">
<path d="M688.784 150L767 0H78.2164L0 150H688.784Z" fill="#00004A"/>
<path d="M123.187 64H119.159V43.651L105.688 64H101.66V36.64H105.688V56.97L119.159 36.64H123.187V64ZM135.805 64.57C133.816 64.57 132.03 64.1457 130.447 63.297C128.876 62.4483 127.635 61.2767 126.723 59.782L129.877 57.711C130.612 58.699 131.46 59.4653 132.423 60.01C133.398 60.5547 134.494 60.827 135.71 60.827C136.977 60.827 137.977 60.542 138.712 59.972C139.459 59.3893 139.833 58.6103 139.833 57.635C139.833 56.8623 139.618 56.2923 139.187 55.925C138.769 55.545 138.186 55.298 137.439 55.184C136.704 55.07 135.868 55.013 134.931 55.013H133.107V51.821H134.931C136.172 51.821 137.192 51.65 137.99 51.308C138.801 50.9533 139.206 50.2883 139.206 49.313C139.206 48.363 138.858 47.679 138.161 47.261C137.477 46.843 136.66 46.634 135.71 46.634C134.646 46.634 133.614 46.862 132.613 47.318C131.612 47.7613 130.738 48.3123 129.991 48.971L127.673 46.254C128.762 45.2027 130.004 44.3857 131.397 43.803C132.803 43.2077 134.31 42.91 135.919 42.91C137.236 42.91 138.452 43.1443 139.567 43.613C140.694 44.069 141.594 44.7467 142.265 45.646C142.949 46.5453 143.291 47.6537 143.291 48.971C143.291 49.997 143.063 50.9343 142.607 51.783C142.151 52.6317 141.454 53.4043 140.517 54.101L140.403 52.752C141.176 52.9927 141.822 53.379 142.341 53.911C142.86 54.443 143.247 55.07 143.5 55.792C143.766 56.5013 143.899 57.255 143.899 58.053C143.899 59.4337 143.532 60.6117 142.797 61.587C142.075 62.5623 141.1 63.3033 139.871 63.81C138.642 64.3167 137.287 64.57 135.805 64.57ZM148.084 64V43.48H162.524V47.223H152.055V64H148.084ZM174.659 64.57C172.607 64.57 170.827 64.1077 169.32 63.183C167.813 62.2583 166.647 60.9853 165.824 59.364C165.013 57.73 164.608 55.849 164.608 53.721C164.608 51.5803 165.026 49.6993 165.862 48.078C166.698 46.444 167.87 45.1773 169.377 44.278C170.884 43.366 172.645 42.91 174.659 42.91C176.711 42.91 178.491 43.3723 179.998 44.297C181.505 45.2217 182.671 46.4947 183.494 48.116C184.317 49.7373 184.729 51.6057 184.729 53.721C184.729 55.8617 184.311 57.749 183.475 59.383C182.652 61.0043 181.486 62.2773 179.979 63.202C178.472 64.114 176.698 64.57 174.659 64.57ZM174.659 60.827C176.622 60.827 178.085 60.1683 179.048 58.851C180.023 57.521 180.511 55.811 180.511 53.721C180.511 51.5803 180.017 49.8703 179.029 48.591C178.054 47.299 176.597 46.653 174.659 46.653C173.329 46.653 172.233 46.957 171.372 47.565C170.511 48.1603 169.871 48.99 169.453 50.054C169.035 51.1053 168.826 52.3277 168.826 53.721C168.826 55.8743 169.32 57.597 170.308 58.889C171.296 60.181 172.746 60.827 174.659 60.827ZM193.76 64V47.052H186.749V43.48H204.742V47.052H197.731V64H193.76ZM216.889 64.57C214.837 64.57 213.058 64.1077 211.55 63.183C210.043 62.2583 208.878 60.9853 208.054 59.364C207.244 57.73 206.838 55.849 206.838 53.721C206.838 51.5803 207.256 49.6993 208.092 48.078C208.928 46.444 210.1 45.1773 211.607 44.278C213.115 43.366 214.875 42.91 216.889 42.91C218.941 42.91 220.721 43.3723 222.228 44.297C223.736 45.2217 224.901 46.4947 225.724 48.116C226.548 49.7373 226.959 51.6057 226.959 53.721C226.959 55.8617 226.541 57.749 225.705 59.383C224.882 61.0043 223.717 62.2773 222.209 63.202C220.702 64.114 218.929 64.57 216.889 64.57ZM216.889 60.827C218.853 60.827 220.316 60.1683 221.278 58.851C222.254 57.521 222.741 55.811 222.741 53.721C222.741 51.5803 222.247 49.8703 221.259 48.591C220.284 47.299 218.827 46.653 216.889 46.653C215.559 46.653 214.464 46.957 213.602 47.565C212.741 48.1603 212.101 48.99 211.683 50.054C211.265 51.1053 211.056 52.3277 211.056 53.721C211.056 55.8743 211.55 57.597 212.538 58.889C213.526 60.181 214.977 60.827 216.889 60.827ZM231.116 64V43.48H240.141C240.736 43.48 241.331 43.518 241.927 43.594C242.522 43.6573 243.048 43.7523 243.504 43.879C244.542 44.1703 245.429 44.753 246.164 45.627C246.898 46.4883 247.266 47.641 247.266 49.085C247.266 49.9083 247.139 50.605 246.886 51.175C246.632 51.7323 246.284 52.2137 245.841 52.619C245.638 52.7963 245.423 52.9547 245.195 53.094C244.967 53.2333 244.739 53.341 244.511 53.417C244.979 53.493 245.442 53.6577 245.898 53.911C246.594 54.2783 247.164 54.8103 247.608 55.507C248.064 56.191 248.292 57.1093 248.292 58.262C248.292 59.6427 247.956 60.8017 247.285 61.739C246.613 62.6637 245.663 63.297 244.435 63.639C243.953 63.7783 243.409 63.8733 242.801 63.924C242.205 63.9747 241.61 64 241.015 64H231.116ZM235.144 60.865H240.768C241.034 60.865 241.338 60.8397 241.68 60.789C242.022 60.7383 242.326 60.6687 242.592 60.58C243.162 60.4027 243.567 60.0797 243.808 59.611C244.061 59.1423 244.188 58.642 244.188 58.11C244.188 57.388 243.998 56.8117 243.618 56.381C243.238 55.9377 242.756 55.6527 242.174 55.526C241.92 55.4373 241.642 55.3867 241.338 55.374C241.034 55.3613 240.774 55.355 240.559 55.355H235.144V60.865ZM235.144 52.163H239.59C239.957 52.163 240.331 52.144 240.711 52.106C241.091 52.0553 241.42 51.973 241.699 51.859C242.193 51.669 242.56 51.3523 242.801 50.909C243.041 50.453 243.162 49.959 243.162 49.427C243.162 48.8443 243.029 48.325 242.763 47.869C242.497 47.413 242.098 47.0963 241.566 46.919C241.198 46.7923 240.774 46.7227 240.293 46.71C239.824 46.6847 239.526 46.672 239.4 46.672H235.144V52.163ZM250.201 64V60.637C250.961 60.7763 251.538 60.7573 251.93 60.58C252.336 60.39 252.633 60.048 252.823 59.554C253.026 59.06 253.197 58.4203 253.336 57.635C253.552 56.4823 253.735 55.1713 253.887 53.702C254.052 52.22 254.198 50.6177 254.324 48.895C254.451 47.1723 254.565 45.3673 254.666 43.48H269.41V64H265.42V47.223H258.238C258.162 48.2237 258.074 49.2877 257.972 50.415C257.884 51.5297 257.782 52.638 257.668 53.74C257.554 54.842 257.434 55.8743 257.307 56.837C257.181 57.7997 257.048 58.623 256.908 59.307C256.655 60.675 256.281 61.7643 255.787 62.575C255.306 63.373 254.622 63.886 253.735 64.114C252.849 64.3547 251.671 64.3167 250.201 64ZM283.839 64.57C281.8 64.57 280.007 64.1267 278.462 63.24C276.929 62.3407 275.732 61.093 274.871 59.497C274.022 57.8883 273.598 56.0263 273.598 53.911C273.598 51.669 274.016 49.7247 274.852 48.078C275.701 46.4313 276.879 45.1583 278.386 44.259C279.893 43.3597 281.648 42.91 283.649 42.91C285.739 42.91 287.519 43.3977 288.988 44.373C290.457 45.3357 291.553 46.71 292.275 48.496C293.01 50.282 293.301 52.4037 293.149 54.861H289.178V53.417C289.153 51.0357 288.697 49.275 287.81 48.135C286.936 46.995 285.6 46.425 283.801 46.425C281.812 46.425 280.318 47.052 279.317 48.306C278.316 49.56 277.816 51.3713 277.816 53.74C277.816 55.9947 278.316 57.7427 279.317 58.984C280.318 60.2127 281.762 60.827 283.649 60.827C284.89 60.827 285.961 60.5483 286.86 59.991C287.772 59.421 288.481 58.6103 288.988 57.559L292.883 58.794C292.085 60.6307 290.875 62.0557 289.254 63.069C287.633 64.0697 285.828 64.57 283.839 64.57ZM276.524 54.861V51.764H291.173V54.861H276.524ZM297.393 64V43.48H301.364V51.859H311.377V43.48H315.348V64H311.377V55.602H301.364V64H297.393ZM337.97 43.48V64H334.151V49.731L323.891 64H320.661V43.48H324.48V57.464L334.759 43.48H337.97ZM352.38 64.57C350.341 64.57 348.548 64.1267 347.003 63.24C345.47 62.3407 344.273 61.093 343.412 59.497C342.563 57.8883 342.139 56.0263 342.139 53.911C342.139 51.669 342.557 49.7247 343.393 48.078C344.242 46.4313 345.42 45.1583 346.927 44.259C348.434 43.3597 350.189 42.91 352.19 42.91C354.28 42.91 356.06 43.3977 357.529 44.373C358.998 45.3357 360.094 46.71 360.816 48.496C361.551 50.282 361.842 52.4037 361.69 54.861H357.719V53.417C357.694 51.0357 357.238 49.275 356.351 48.135C355.477 46.995 354.141 46.425 352.342 46.425C350.353 46.425 348.859 47.052 347.858 48.306C346.857 49.56 346.357 51.3713 346.357 53.74C346.357 55.9947 346.857 57.7427 347.858 58.984C348.859 60.2127 350.303 60.827 352.19 60.827C353.431 60.827 354.502 60.5483 355.401 59.991C356.313 59.421 357.022 58.6103 357.529 57.559L361.424 58.794C360.626 60.6307 359.416 62.0557 357.795 63.069C356.174 64.0697 354.369 64.57 352.38 64.57ZM345.065 54.861V51.764H359.714V54.861H345.065ZM101.641 109V88.48H104.966L112.547 103.528L120.109 88.48H123.453V109H119.615V96.612L113.44 109H111.635L105.46 96.612V109H101.641ZM137.888 109.57C135.849 109.57 134.056 109.127 132.511 108.24C130.978 107.341 129.781 106.093 128.92 104.497C128.071 102.888 127.647 101.026 127.647 98.911C127.647 96.669 128.065 94.7247 128.901 93.078C129.75 91.4313 130.928 90.1583 132.435 89.259C133.942 88.3597 135.697 87.91 137.698 87.91C139.788 87.91 141.568 88.3977 143.037 89.373C144.506 90.3357 145.602 91.71 146.324 93.496C147.059 95.282 147.35 97.4037 147.198 99.861H143.227V98.417C143.202 96.0357 142.746 94.275 141.859 93.135C140.985 91.995 139.649 91.425 137.85 91.425C135.861 91.425 134.367 92.052 133.366 93.306C132.365 94.56 131.865 96.3713 131.865 98.74C131.865 100.995 132.365 102.743 133.366 103.984C134.367 105.213 135.811 105.827 137.698 105.827C138.939 105.827 140.01 105.548 140.909 104.991C141.821 104.421 142.53 103.61 143.037 102.559L146.932 103.794C146.134 105.631 144.924 107.056 143.303 108.069C141.682 109.07 139.877 109.57 137.888 109.57ZM130.573 99.861V96.764H145.222V99.861H130.573ZM156.242 109V92.052H149.231V88.48H167.224V92.052H160.213V109H156.242ZM176.033 109.57C174.513 109.57 173.24 109.291 172.214 108.734C171.188 108.164 170.409 107.417 169.877 106.492C169.358 105.555 169.098 104.529 169.098 103.414C169.098 102.375 169.282 101.463 169.649 100.678C170.016 99.8927 170.561 99.2277 171.283 98.683C172.005 98.1257 172.892 97.676 173.943 97.334C174.855 97.068 175.887 96.8337 177.04 96.631C178.193 96.4283 179.402 96.2383 180.669 96.061C181.948 95.8837 183.215 95.7063 184.469 95.529L183.025 96.327C183.05 94.7183 182.708 93.5277 181.999 92.755C181.302 91.9697 180.099 91.577 178.389 91.577C177.312 91.577 176.324 91.8303 175.425 92.337C174.526 92.831 173.899 93.6543 173.544 94.807L169.839 93.667C170.346 91.9063 171.308 90.5067 172.727 89.468C174.158 88.4293 176.058 87.91 178.427 87.91C180.264 87.91 181.86 88.2267 183.215 88.86C184.583 89.4807 185.584 90.4687 186.217 91.824C186.546 92.4953 186.749 93.2047 186.825 93.952C186.901 94.6993 186.939 95.5037 186.939 96.365V109H183.424V104.307L184.108 104.915C183.259 106.486 182.176 107.657 180.859 108.43C179.554 109.19 177.946 109.57 176.033 109.57ZM176.736 106.321C177.863 106.321 178.832 106.125 179.643 105.732C180.454 105.327 181.106 104.814 181.6 104.193C182.094 103.572 182.417 102.926 182.569 102.255C182.784 101.647 182.905 100.963 182.93 100.203C182.968 99.443 182.987 98.835 182.987 98.379L184.279 98.854C183.025 99.044 181.885 99.215 180.859 99.367C179.833 99.519 178.902 99.671 178.066 99.823C177.243 99.9623 176.508 100.133 175.862 100.336C175.317 100.526 174.83 100.754 174.399 101.02C173.981 101.286 173.645 101.609 173.392 101.989C173.151 102.369 173.031 102.831 173.031 103.376C173.031 103.908 173.164 104.402 173.43 104.858C173.696 105.301 174.101 105.656 174.646 105.922C175.191 106.188 175.887 106.321 176.736 106.321ZM189.973 109V105.637C190.733 105.776 191.309 105.757 191.702 105.58C192.107 105.39 192.405 105.048 192.595 104.554C192.798 104.06 192.969 103.42 193.108 102.635C193.323 101.482 193.507 100.171 193.659 98.702C193.824 97.22 193.969 95.6177 194.096 93.895C194.223 92.1723 194.337 90.3673 194.438 88.48H209.182V109H205.192V92.223H198.01C197.934 93.2237 197.845 94.2877 197.744 95.415C197.655 96.5297 197.554 97.638 197.44 98.74C197.326 99.842 197.206 100.874 197.079 101.837C196.952 102.8 196.819 103.623 196.68 104.307C196.427 105.675 196.053 106.764 195.559 107.575C195.078 108.373 194.394 108.886 193.507 109.114C192.62 109.355 191.442 109.317 189.973 109ZM212.61 109V105.637C213.37 105.776 213.946 105.757 214.339 105.58C214.744 105.39 215.042 105.048 215.232 104.554C215.434 104.06 215.605 103.42 215.745 102.635C215.96 101.482 216.144 100.171 216.296 98.702C216.46 97.22 216.606 95.6177 216.733 93.895C216.859 92.1723 216.973 90.3673 217.075 88.48H231.819V109H227.829V92.223H220.647C220.571 93.2237 220.482 94.2877 220.381 95.415C220.292 96.5297 220.191 97.638 220.077 98.74C219.963 99.842 219.842 100.874 219.716 101.837C219.589 102.8 219.456 103.623 219.317 104.307C219.063 105.675 218.69 106.764 218.196 107.575C217.714 108.373 217.03 108.886 216.144 109.114C215.257 109.355 214.079 109.317 212.61 109ZM246.057 109.57C244.005 109.57 242.226 109.108 240.718 108.183C239.211 107.258 238.046 105.985 237.222 104.364C236.412 102.73 236.006 100.849 236.006 98.721C236.006 96.5803 236.424 94.6993 237.26 93.078C238.096 91.444 239.268 90.1773 240.775 89.278C242.283 88.366 244.043 87.91 246.057 87.91C248.109 87.91 249.889 88.3723 251.396 89.297C252.904 90.2217 254.069 91.4947 254.892 93.116C255.716 94.7373 256.127 96.6057 256.127 98.721C256.127 100.862 255.709 102.749 254.873 104.383C254.05 106.004 252.885 107.277 251.377 108.202C249.87 109.114 248.097 109.57 246.057 109.57ZM246.057 105.827C248.021 105.827 249.484 105.168 250.446 103.851C251.422 102.521 251.909 100.811 251.909 98.721C251.909 96.5803 251.415 94.8703 250.427 93.591C249.452 92.299 247.995 91.653 246.057 91.653C244.727 91.653 243.632 91.957 242.77 92.565C241.909 93.1603 241.269 93.99 240.851 95.054C240.433 96.1053 240.224 97.3277 240.224 98.721C240.224 100.874 240.718 102.597 241.706 103.889C242.694 105.181 244.145 105.827 246.057 105.827ZM260.284 109L260.303 88.48H264.331V98.36L272.387 88.48H277.441L268.929 98.74L278.315 109H272.919L264.331 99.12V109H260.284ZM288.77 109.57C286.718 109.57 284.939 109.108 283.431 108.183C281.924 107.258 280.759 105.985 279.935 104.364C279.125 102.73 278.719 100.849 278.719 98.721C278.719 96.5803 279.137 94.6993 279.973 93.078C280.809 91.444 281.981 90.1773 283.488 89.278C284.996 88.366 286.756 87.91 288.77 87.91C290.822 87.91 292.602 88.3723 294.109 89.297C295.617 90.2217 296.782 91.4947 297.605 93.116C298.429 94.7373 298.84 96.6057 298.84 98.721C298.84 100.862 298.422 102.749 297.586 104.383C296.763 106.004 295.598 107.277 294.09 108.202C292.583 109.114 290.81 109.57 288.77 109.57ZM288.77 105.827C290.734 105.827 292.197 105.168 293.159 103.851C294.135 102.521 294.622 100.811 294.622 98.721C294.622 96.5803 294.128 94.8703 293.14 93.591C292.165 92.299 290.708 91.653 288.77 91.653C287.44 91.653 286.345 91.957 285.483 92.565C284.622 93.1603 283.982 93.99 283.564 95.054C283.146 96.1053 282.937 97.3277 282.937 98.721C282.937 100.874 283.431 102.597 284.419 103.889C285.407 105.181 286.858 105.827 288.77 105.827ZM302.996 109V88.48H306.967V96.859H316.98V88.48H320.951V109H316.98V100.602H306.967V109H302.996ZM335.061 109.57C332.958 109.57 331.172 109.101 329.703 108.164C328.234 107.227 327.106 105.941 326.321 104.307C325.548 102.673 325.156 100.817 325.143 98.74C325.156 96.6247 325.561 94.7563 326.359 93.135C327.157 91.501 328.297 90.2217 329.779 89.297C331.261 88.3723 333.041 87.91 335.118 87.91C337.36 87.91 339.273 88.4673 340.856 89.582C342.452 90.6967 343.503 92.223 344.01 94.161L340.058 95.301C339.665 94.1483 339.019 93.2553 338.12 92.622C337.233 91.976 336.214 91.653 335.061 91.653C333.756 91.653 332.686 91.9633 331.85 92.584C331.014 93.192 330.393 94.028 329.988 95.092C329.583 96.156 329.374 97.372 329.361 98.74C329.374 100.855 329.855 102.565 330.805 103.87C331.768 105.175 333.186 105.827 335.061 105.827C336.34 105.827 337.373 105.536 338.158 104.953C338.956 104.358 339.564 103.509 339.982 102.407L344.01 103.357C343.339 105.358 342.23 106.897 340.685 107.974C339.14 109.038 337.265 109.57 335.061 109.57ZM352.959 109V92.052H345.948V88.48H363.941V92.052H356.93V109H352.959ZM377.182 109.57C375.218 109.57 373.572 109.095 372.242 108.145C370.912 107.182 369.905 105.884 369.221 104.25C368.537 102.616 368.195 100.773 368.195 98.721C368.195 96.669 368.53 94.826 369.202 93.192C369.886 91.558 370.886 90.2723 372.204 89.335C373.534 88.385 375.168 87.91 377.106 87.91C379.031 87.91 380.69 88.385 382.084 89.335C383.49 90.2723 384.573 91.558 385.333 93.192C386.093 94.8133 386.473 96.6563 386.473 98.721C386.473 100.773 386.093 102.622 385.333 104.269C384.585 105.903 383.515 107.195 382.122 108.145C380.741 109.095 379.094 109.57 377.182 109.57ZM367.53 118.12V88.48H371.064V103.243H371.52V118.12H367.53ZM376.631 105.979C377.897 105.979 378.942 105.656 379.766 105.01C380.602 104.364 381.222 103.496 381.628 102.407C382.046 101.305 382.255 100.076 382.255 98.721C382.255 97.3783 382.046 96.1623 381.628 95.073C381.222 93.9837 380.595 93.116 379.747 92.47C378.898 91.824 377.815 91.501 376.498 91.501C375.256 91.501 374.23 91.805 373.42 92.413C372.622 93.021 372.026 93.8697 371.634 94.959C371.254 96.0483 371.064 97.3023 371.064 98.721C371.064 100.14 371.254 101.394 371.634 102.483C372.014 103.572 372.615 104.427 373.439 105.048C374.262 105.669 375.326 105.979 376.631 105.979ZM392.7 118.12L396.671 107.309L396.728 110.501L387.779 88.48H391.921L398.609 105.485H397.393L403.777 88.48H407.805L396.481 118.12H392.7ZM410.762 109L410.781 88.48H414.809V98.36L422.865 88.48H427.919L419.407 98.74L428.793 109H423.397L414.809 99.12V109H410.762ZM448.037 113.047V109H430.69V88.48H434.661V105.257H444.028V88.48H447.999V105.428H452.008V113.047H448.037ZM472.343 88.48V109H468.524V94.731L458.264 109H455.034V88.48H458.853V102.464L469.132 88.48H472.343ZM486.81 86.124C485.81 86.124 484.891 85.877 484.055 85.383C483.232 84.889 482.573 84.2303 482.079 83.407C481.585 82.5837 481.338 81.6653 481.338 80.652H484.492C484.492 81.2853 484.72 81.83 485.176 82.286C485.632 82.742 486.177 82.97 486.81 82.97C487.456 82.97 488.001 82.742 488.444 82.286C488.9 81.83 489.128 81.2853 489.128 80.652H492.282C492.282 81.6653 492.035 82.5837 491.541 83.407C491.047 84.2303 490.382 84.889 489.546 85.383C488.723 85.877 487.811 86.124 486.81 86.124ZM494.942 88.48V109H491.123V94.731L480.863 109H477.633V88.48H481.452V102.464L491.731 88.48H494.942ZM507.84 109V88.48H511.811V96.859H521.824V88.48H525.795V109H521.824V100.602H511.811V109H507.84ZM536.922 109.57C535.402 109.57 534.129 109.291 533.103 108.734C532.077 108.164 531.298 107.417 530.766 106.492C530.246 105.555 529.987 104.529 529.987 103.414C529.987 102.375 530.17 101.463 530.538 100.678C530.905 99.8927 531.45 99.2277 532.172 98.683C532.894 98.1257 533.78 97.676 534.832 97.334C535.744 97.068 536.776 96.8337 537.929 96.631C539.081 96.4283 540.291 96.2383 541.558 96.061C542.837 95.8837 544.104 95.7063 545.358 95.529L543.914 96.327C543.939 94.7183 543.597 93.5277 542.888 92.755C542.191 91.9697 540.988 91.577 539.278 91.577C538.201 91.577 537.213 91.8303 536.314 92.337C535.414 92.831 534.787 93.6543 534.433 94.807L530.728 93.667C531.234 91.9063 532.197 90.5067 533.616 89.468C535.047 88.4293 536.947 87.91 539.316 87.91C541.152 87.91 542.748 88.2267 544.104 88.86C545.472 89.4807 546.472 90.4687 547.106 91.824C547.435 92.4953 547.638 93.2047 547.714 93.952C547.79 94.6993 547.828 95.5037 547.828 96.365V109H544.313V104.307L544.997 104.915C544.148 106.486 543.065 107.657 541.748 108.43C540.443 109.19 538.834 109.57 536.922 109.57ZM537.625 106.321C538.752 106.321 539.721 106.125 540.532 105.732C541.342 105.327 541.995 104.814 542.489 104.193C542.983 103.572 543.306 102.926 543.458 102.255C543.673 101.647 543.793 100.963 543.819 100.203C543.857 99.443 543.876 98.835 543.876 98.379L545.168 98.854C543.914 99.044 542.774 99.215 541.748 99.367C540.722 99.519 539.791 99.671 538.955 99.823C538.131 99.9623 537.397 100.133 536.751 100.336C536.206 100.526 535.718 100.754 535.288 101.02C534.87 101.286 534.534 101.609 534.281 101.989C534.04 102.369 533.92 102.831 533.92 103.376C533.92 103.908 534.053 104.402 534.319 104.858C534.585 105.301 534.99 105.656 535.535 105.922C536.079 106.188 536.776 106.321 537.625 106.321ZM567.684 109.57C565.695 109.57 563.909 109.146 562.326 108.297C560.755 107.448 559.514 106.277 558.602 104.782L561.756 102.711C562.491 103.699 563.339 104.465 564.302 105.01C565.277 105.555 566.373 105.827 567.589 105.827C568.856 105.827 569.856 105.542 570.591 104.972C571.338 104.389 571.712 103.61 571.712 102.635C571.712 101.862 571.497 101.292 571.066 100.925C570.648 100.545 570.065 100.298 569.318 100.184C568.583 100.07 567.747 100.013 566.81 100.013H564.986V96.821H566.81C568.051 96.821 569.071 96.65 569.869 96.308C570.68 95.9533 571.085 95.2883 571.085 94.313C571.085 93.363 570.737 92.679 570.04 92.261C569.356 91.843 568.539 91.634 567.589 91.634C566.525 91.634 565.493 91.862 564.492 92.318C563.491 92.7613 562.617 93.3123 561.87 93.971L559.552 91.254C560.641 90.2027 561.883 89.3857 563.276 88.803C564.682 88.2077 566.189 87.91 567.798 87.91C569.115 87.91 570.331 88.1443 571.446 88.613C572.573 89.069 573.473 89.7467 574.144 90.646C574.828 91.5453 575.17 92.6537 575.17 93.971C575.17 94.997 574.942 95.9343 574.486 96.783C574.03 97.6317 573.333 98.4043 572.396 99.101L572.282 97.752C573.055 97.9927 573.701 98.379 574.22 98.911C574.739 99.443 575.126 100.07 575.379 100.792C575.645 101.501 575.778 102.255 575.778 103.053C575.778 104.434 575.411 105.612 574.676 106.587C573.954 107.562 572.979 108.303 571.75 108.81C570.521 109.317 569.166 109.57 567.684 109.57ZM585.758 109.57C584.238 109.57 582.965 109.291 581.939 108.734C580.913 108.164 580.134 107.417 579.602 106.492C579.082 105.555 578.823 104.529 578.823 103.414C578.823 102.375 579.006 101.463 579.374 100.678C579.741 99.8927 580.286 99.2277 581.008 98.683C581.73 98.1257 582.616 97.676 583.668 97.334C584.58 97.068 585.612 96.8337 586.765 96.631C587.917 96.4283 589.127 96.2383 590.394 96.061C591.673 95.8837 592.94 95.7063 594.194 95.529L592.75 96.327C592.775 94.7183 592.433 93.5277 591.724 92.755C591.027 91.9697 589.824 91.577 588.114 91.577C587.037 91.577 586.049 91.8303 585.15 92.337C584.25 92.831 583.623 93.6543 583.269 94.807L579.564 93.667C580.07 91.9063 581.033 90.5067 582.452 89.468C583.883 88.4293 585.783 87.91 588.152 87.91C589.988 87.91 591.584 88.2267 592.94 88.86C594.308 89.4807 595.308 90.4687 595.942 91.824C596.271 92.4953 596.474 93.2047 596.55 93.952C596.626 94.6993 596.664 95.5037 596.664 96.365V109H593.149V104.307L593.833 104.915C592.984 106.486 591.901 107.657 590.584 108.43C589.279 109.19 587.67 109.57 585.758 109.57ZM586.461 106.321C587.588 106.321 588.557 106.125 589.368 105.732C590.178 105.327 590.831 104.814 591.325 104.193C591.819 103.572 592.142 102.926 592.294 102.255C592.509 101.647 592.629 100.963 592.655 100.203C592.693 99.443 592.712 98.835 592.712 98.379L594.004 98.854C592.75 99.044 591.61 99.215 590.584 99.367C589.558 99.519 588.627 99.671 587.791 99.823C586.967 99.9623 586.233 100.133 585.587 100.336C585.042 100.526 584.554 100.754 584.124 101.02C583.706 101.286 583.37 101.609 583.117 101.989C582.876 102.369 582.756 102.831 582.756 103.376C582.756 103.908 582.889 104.402 583.155 104.858C583.421 105.301 583.826 105.656 584.371 105.922C584.915 106.188 585.612 106.321 586.461 106.321ZM601.579 109L601.598 88.48H605.626V98.36L613.682 88.48H618.736L610.224 98.74L619.61 109H614.214L605.626 99.12V109H601.579ZM627.32 109.57C625.8 109.57 624.527 109.291 623.501 108.734C622.475 108.164 621.696 107.417 621.164 106.492C620.645 105.555 620.385 104.529 620.385 103.414C620.385 102.375 620.569 101.463 620.936 100.678C621.304 99.8927 621.848 99.2277 622.57 98.683C623.292 98.1257 624.179 97.676 625.23 97.334C626.142 97.068 627.175 96.8337 628.327 96.631C629.48 96.4283 630.69 96.2383 631.956 96.061C633.236 95.8837 634.502 95.7063 635.756 95.529L634.312 96.327C634.338 94.7183 633.996 93.5277 633.286 92.755C632.59 91.9697 631.386 91.577 629.676 91.577C628.6 91.577 627.612 91.8303 626.712 92.337C625.813 92.831 625.186 93.6543 624.831 94.807L621.126 93.667C621.633 91.9063 622.596 90.5067 624.014 89.468C625.446 88.4293 627.346 87.91 629.714 87.91C631.551 87.91 633.147 88.2267 634.502 88.86C635.87 89.4807 636.871 90.4687 637.504 91.824C637.834 92.4953 638.036 93.2047 638.112 93.952C638.188 94.6993 638.226 95.5037 638.226 96.365V109H634.711V104.307L635.395 104.915C634.547 106.486 633.464 107.657 632.146 108.43C630.842 109.19 629.233 109.57 627.32 109.57ZM628.023 106.321C629.151 106.321 630.12 106.125 630.93 105.732C631.741 105.327 632.393 104.814 632.887 104.193C633.381 103.572 633.704 102.926 633.856 102.255C634.072 101.647 634.192 100.963 634.217 100.203C634.255 99.443 634.274 98.835 634.274 98.379L635.566 98.854C634.312 99.044 633.172 99.215 632.146 99.367C631.12 99.519 630.189 99.671 629.353 99.823C628.53 99.9623 627.795 100.133 627.149 100.336C626.605 100.526 626.117 100.754 625.686 101.02C625.268 101.286 624.933 101.609 624.679 101.989C624.439 102.369 624.318 102.831 624.318 103.376C624.318 103.908 624.451 104.402 624.717 104.858C624.983 105.301 625.389 105.656 625.933 105.922C626.478 106.188 627.175 106.321 628.023 106.321ZM650.475 109.57C648.486 109.57 646.7 109.146 645.117 108.297C643.546 107.448 642.305 106.277 641.393 104.782L644.547 102.711C645.282 103.699 646.13 104.465 647.093 105.01C648.068 105.555 649.164 105.827 650.38 105.827C651.647 105.827 652.647 105.542 653.382 104.972C654.129 104.389 654.503 103.61 654.503 102.635C654.503 101.862 654.288 101.292 653.857 100.925C653.439 100.545 652.856 100.298 652.109 100.184C651.374 100.07 650.538 100.013 649.601 100.013H647.777V96.821H649.601C650.842 96.821 651.862 96.65 652.66 96.308C653.471 95.9533 653.876 95.2883 653.876 94.313C653.876 93.363 653.528 92.679 652.831 92.261C652.147 91.843 651.33 91.634 650.38 91.634C649.316 91.634 648.284 91.862 647.283 92.318C646.282 92.7613 645.408 93.3123 644.661 93.971L642.343 91.254C643.432 90.2027 644.674 89.3857 646.067 88.803C647.473 88.2077 648.98 87.91 650.589 87.91C651.906 87.91 653.122 88.1443 654.237 88.613C655.364 89.069 656.264 89.7467 656.935 90.646C657.619 91.5453 657.961 92.6537 657.961 93.971C657.961 94.997 657.733 95.9343 657.277 96.783C656.821 97.6317 656.124 98.4043 655.187 99.101L655.073 97.752C655.846 97.9927 656.492 98.379 657.011 98.911C657.53 99.443 657.917 100.07 658.17 100.792C658.436 101.501 658.569 102.255 658.569 103.053C658.569 104.434 658.202 105.612 657.467 106.587C656.745 107.562 655.77 108.303 654.541 108.81C653.312 109.317 651.957 109.57 650.475 109.57Z" fill="white"/>
</svg>
