<svg width="84" height="84" viewBox="0 0 84 84" fill="none" xmlns="http://www.w3.org/2000/svg">
<g clip-path="url(#clip0_2007_206)">
<path d="M41.9414 83.7578C65.036 83.7578 83.7578 65.036 83.7578 41.9414C83.7578 18.8468 65.036 0.125 41.9414 0.125C18.8468 0.125 0.125 18.8468 0.125 41.9414C0.125 65.036 18.8468 83.7578 41.9414 83.7578Z" fill="#97A4AF"/>
<path d="M14.876 21.8735C14.6339 22.2071 14.35 22.446 14.0229 22.5904C13.6957 22.7347 13.3493 22.778 12.9837 22.7235C12.6181 22.669 12.2589 22.5134 11.9045 22.2568L10.5478 21.2738C10.1918 21.0156 9.932 20.7221 9.76682 20.3934C9.60165 20.0646 9.5375 19.7215 9.57118 19.3671C9.60486 19.0127 9.74437 18.6679 9.98652 18.3327C10.2287 17.9992 10.5125 17.7602 10.8397 17.6159C11.1668 17.4732 11.5116 17.4283 11.8756 17.4812C12.2396 17.5357 12.6004 17.6913 12.9565 17.9495L14.3131 18.9325C14.6659 19.1891 14.9257 19.4825 15.0925 19.8129C15.2593 20.1432 15.3234 20.4864 15.2897 20.8408C15.2545 21.1968 15.1166 21.54 14.8744 21.8752L14.876 21.8735ZM14.2137 21.3941C14.4286 21.0974 14.5024 20.7879 14.435 20.4656C14.3677 20.1432 14.1704 19.8642 13.8465 19.6285L12.4433 18.6118C12.1161 18.3744 11.789 18.275 11.4635 18.3103C11.1379 18.3472 10.8669 18.5139 10.6504 18.8106C10.4371 19.1057 10.3634 19.4136 10.4291 19.7375C10.4949 20.0598 10.6921 20.3405 11.0193 20.5762L12.4224 21.5929C12.748 21.8286 13.0735 21.9281 13.4023 21.8912C13.731 21.8543 14.002 21.6891 14.2153 21.3941H14.2137Z" fill="#323331" stroke="#323332" stroke-width="0.0898037" stroke-miterlimit="10"/>
<path d="M18.0523 18.0985C17.7653 18.3936 17.4478 18.5892 17.1046 18.6839C16.7614 18.7785 16.4118 18.7721 16.0574 18.6662C15.703 18.5588 15.371 18.3535 15.0583 18.0488L13.8572 16.8798C13.5429 16.5735 13.328 16.2447 13.2125 15.8951C13.0971 15.5455 13.0827 15.1975 13.1676 14.8512C13.2526 14.5048 13.4403 14.184 13.7273 13.8874C14.0144 13.5907 14.3319 13.3967 14.6751 13.302C15.0198 13.2074 15.3678 13.2122 15.7206 13.3197C16.0734 13.4255 16.407 13.6324 16.7213 13.9387L17.9224 15.1077C18.2351 15.4124 18.45 15.7396 18.5655 16.0908C18.6809 16.442 18.697 16.79 18.612 17.1363C18.527 17.4827 18.3394 17.8035 18.0523 18.1001V18.0985ZM17.467 17.5276C17.7236 17.2646 17.8406 16.9696 17.8198 16.6408C17.7989 16.3121 17.645 16.0074 17.3579 15.7284L16.1167 14.5192C15.8281 14.237 15.5186 14.091 15.1898 14.0798C14.8611 14.0686 14.5692 14.1953 14.3142 14.4583C14.0593 14.7197 13.9422 15.0147 13.9614 15.3419C13.9807 15.6706 14.1346 15.9753 14.4233 16.2576L15.6645 17.4667C15.9516 17.7473 16.2611 17.8917 16.5914 17.9029C16.9218 17.9141 17.2136 17.789 17.467 17.5276Z" fill="#323331" stroke="#323332" stroke-width="0.0898037" stroke-miterlimit="10"/>
<path d="M21.7392 14.8273C21.4121 15.0774 21.0705 15.225 20.7161 15.2683C20.3617 15.3116 20.0169 15.2554 19.6834 15.0983C19.3482 14.9411 19.0499 14.6894 18.7837 14.343L17.7654 13.012C17.4992 12.6624 17.3341 12.3064 17.2699 11.9439C17.2058 11.5815 17.2426 11.2351 17.3774 10.9048C17.5121 10.5744 17.7446 10.2842 18.0717 10.034C18.3989 9.78383 18.7404 9.6363 19.0948 9.593C19.4492 9.5497 19.7924 9.60583 20.126 9.76138C20.4595 9.91693 20.7594 10.1703 21.0272 10.5199L22.0455 11.8509C22.3101 12.1973 22.4753 12.5533 22.5395 12.9173C22.6036 13.2814 22.5683 13.6277 22.4336 13.9581C22.2989 14.2884 22.0664 14.5787 21.7392 14.8289V14.8273ZM21.2421 14.1778C21.534 13.9549 21.6927 13.6791 21.72 13.3519C21.7473 13.0232 21.6398 12.7008 21.3961 12.3817L20.3441 11.0058C20.0987 10.6851 19.8149 10.4958 19.4909 10.4365C19.167 10.3772 18.8607 10.4606 18.5689 10.6835C18.2802 10.9048 18.1198 11.179 18.091 11.5077C18.0621 11.8349 18.1695 12.1604 18.4149 12.4811L19.4669 13.8571C19.7106 14.1762 19.9945 14.3654 20.32 14.4232C20.6456 14.4825 20.9519 14.4007 21.2421 14.1794V14.1778Z" fill="#323331" stroke="#323332" stroke-width="0.0898037" stroke-miterlimit="10"/>
<path d="M23.1683 7.63011L22.8203 6.92131L26.5199 5.10278L26.8679 5.81159L23.1683 7.63011ZM26.9112 11.5013L24.5154 6.62784L25.2514 6.26542L27.6473 11.1389L26.9112 11.5013Z" fill="#323331" stroke="#323332" stroke-width="0.0898037" stroke-miterlimit="10"/>
<path d="M31.4397 7.50348L31.916 3.26507L32.6488 3.03735L34.4096 8.68376L33.6463 8.9211L32.3281 4.69231L32.4436 4.92804L32.0667 8.55226L31.5215 8.72225L29.1754 6.03295L29.1112 5.69458L30.4294 9.92337L29.6661 10.1607L27.9053 4.5143L28.6381 4.28659L31.4381 7.50348H31.4397Z" fill="#323331" stroke="#323332" stroke-width="0.0898037" stroke-miterlimit="10"/>
<path d="M35.6048 8.46724L34.8223 2.60435L35.6353 2.4953L36.4179 8.35819L35.6048 8.46724ZM35.6626 5.89501L35.5583 5.11243L37.3704 4.87028L37.4747 5.65286L35.6626 5.89501ZM37.1748 5.717L36.6681 5.04989L37.9959 2.18099L39.0158 2.04468L37.1748 5.717ZM38.9147 8.02464L36.7498 5.68814L37.4057 5.17016L40.0405 7.8755L38.9131 8.02624L38.9147 8.02464Z" fill="#323331" stroke="#323332" stroke-width="0.0898037" stroke-miterlimit="10"/>
<path d="M40.5244 5.42845L43.2249 5.38354L43.2378 6.17253L40.5372 6.21744L40.5244 5.42845Z" fill="#323331" stroke="#323332" stroke-width="0.0898037" stroke-miterlimit="10"/>
<path d="M43.7575 7.87372L46.6504 2.28345L47.3432 2.37325L48.7223 8.51518L47.8451 8.40132L46.8509 3.46212L44.633 7.98598L43.7559 7.87212L43.7575 7.87372ZM44.9073 6.71429L45.0083 5.93172L48.0568 6.32621L47.9558 7.10879L44.9073 6.71429Z" fill="#323331" stroke="#323332" stroke-width="0.0898037" stroke-miterlimit="10"/>
<path d="M49.2096 8.62291L49.4373 7.8676C49.7725 7.96863 50.0531 7.92373 50.276 7.72969C50.4989 7.53725 50.6914 7.17483 50.8517 6.64242L51.8765 3.25073L52.6606 3.48807L51.6503 6.83326C51.405 7.6463 51.0955 8.19474 50.7218 8.48179C50.3482 8.76885 49.8687 8.82337 49.285 8.64697L49.208 8.62452L49.2096 8.62291ZM52.1378 4.15358L52.3656 3.39827L55.0468 4.2081L54.8191 4.96342L52.1378 4.15358ZM52.9204 9.74386L54.6315 4.08302L55.4157 4.32036L53.7046 9.98119L52.9204 9.74386Z" fill="#323331" stroke="#323332" stroke-width="0.0898037" stroke-miterlimit="10"/>
<path d="M54.2617 10.1752L58.7904 5.80371L59.419 6.11001L58.7631 12.369L57.9693 11.9809L58.6044 6.98238L55.0571 10.5617L54.2617 10.1736V10.1752ZM55.7226 9.44397L56.069 8.73516L58.8321 10.0822L58.4857 10.791L55.7226 9.44397Z" fill="#323331" stroke="#323332" stroke-width="0.0898037" stroke-miterlimit="10"/>
<path d="M59.3223 12.7523L62.6867 7.88843L63.3602 8.35509L59.9958 13.2189L59.3223 12.7523ZM59.6686 12.9928L60.1177 12.3433L61.6539 13.4065C61.8849 13.5669 62.1126 13.6214 62.3371 13.5701C62.5616 13.5188 62.7621 13.3648 62.9401 13.1083C63.1197 12.8501 63.1934 12.6063 63.163 12.377C63.1325 12.1477 63.001 11.9536 62.7701 11.7933L61.2338 10.7301L61.6828 10.0806L63.1966 11.1278C63.5029 11.3395 63.7242 11.5768 63.8589 11.8414C63.9937 12.1044 64.0434 12.3834 64.0081 12.6785C63.9728 12.9736 63.8461 13.275 63.6328 13.5861C63.4196 13.894 63.1822 14.117 62.9192 14.2549C62.6562 14.3928 62.3772 14.4441 62.0837 14.4088C61.7903 14.3735 61.4904 14.2501 61.1841 14.0384L59.6703 12.9912L59.6686 12.9928ZM62.5648 8.76401L63.0138 8.11454L65.6406 9.93146L65.1916 10.5809L62.5648 8.76401Z" fill="#323331" stroke="#323332" stroke-width="0.0898037" stroke-miterlimit="10"/>
<path d="M70.2478 13.9662L65.8202 16.2706C65.4257 16.4759 65.0713 16.5817 64.7554 16.5913C64.4395 16.601 64.146 16.4807 63.8734 16.2305L63.373 15.7719L63.9247 15.1689L64.425 15.6276C64.5629 15.7542 64.7233 15.8104 64.9045 15.7943C65.0857 15.7783 65.2958 15.7061 65.5364 15.5762L69.5903 13.3648L70.2478 13.9678V13.9662ZM65.0633 15.8585L66.8112 10.8167L67.4992 11.4469L65.9036 15.7286L65.0649 15.8585H65.0633Z" fill="#323331" stroke="#323332" stroke-width="0.0898037" stroke-miterlimit="10"/>
<path d="M66.6641 18.854L71.1847 15.0405L71.7139 15.6675L67.1933 19.481L66.6641 18.854ZM70.8399 15.8568L71.4429 15.3484L73.2951 17.5438L72.6921 18.0522L70.8399 15.8568Z" fill="#323331" stroke="#323332" stroke-width="0.0898037" stroke-miterlimit="10"/>
<path d="M68.7246 21.2306L74.8601 19.8274L75.2402 20.4143L71.4428 25.4337L70.9633 24.6912L74.0904 20.7415L69.2041 21.9731L68.7246 21.2306ZM70.3523 21.3589L71.0146 20.9307L72.684 23.5125L72.0217 23.9407L70.3523 21.3589Z" fill="#323331" stroke="#323332" stroke-width="0.0898037" stroke-miterlimit="10"/>
<path d="M3.00879 32.7718L3.22849 32.0149L7.5134 33.2625L7.38992 33.3251L3.99823 29.3737L4.18105 28.7483L9.627 30.3343L9.4073 31.0912L5.05984 29.8243L5.18332 29.7634L8.63595 33.7404L8.45634 34.3594L3.01039 32.7734L3.00879 32.7718Z" fill="white"/>
<path d="M2.34252 36.2821C2.4195 35.74 2.61193 35.3215 2.92144 35.0232C3.23094 34.7249 3.62704 34.5758 4.10973 34.5774L3.99587 35.3808C3.75372 35.3969 3.55487 35.4963 3.39772 35.6791C3.24056 35.8619 3.13953 36.1121 3.09463 36.428C3.04973 36.7391 3.09463 36.9925 3.23254 37.1849C3.36885 37.3774 3.58053 37.4944 3.86919 37.5361H3.87239C4.16907 37.5794 4.40801 37.5361 4.59243 37.4094C4.77684 37.2827 4.88749 37.0823 4.92598 36.8065L5.04305 35.9838L5.79355 36.0896L5.67648 36.9123C5.6412 37.1577 5.68611 37.3565 5.81119 37.5105C5.93467 37.6644 6.1255 37.7606 6.38369 37.7959L6.41897 37.8007C6.67715 37.8376 6.88082 37.7879 7.03156 37.6516C7.1823 37.5153 7.27852 37.3052 7.31861 37.0213C7.3571 36.7551 7.32663 36.521 7.23041 36.319C7.13419 36.1169 6.98024 35.9646 6.76856 35.8635L6.88242 35.0633C7.33304 35.2221 7.66339 35.477 7.87186 35.8298C8.08034 36.1826 8.1509 36.6028 8.08194 37.0903C8.00336 37.65 7.81734 38.0637 7.52548 38.3347C7.23362 38.6041 6.84874 38.7068 6.37246 38.6378L6.34199 38.633C6.04532 38.5913 5.79836 38.4887 5.59951 38.3267C5.40066 38.1647 5.26595 37.9547 5.197 37.6981C5.09436 37.9595 4.91315 38.1471 4.65497 38.2626C4.39678 38.378 4.08407 38.4085 3.71524 38.3556H3.71203C3.19406 38.2818 2.8156 38.0637 2.57826 37.7013C2.34092 37.3389 2.26234 36.8658 2.34573 36.2805L2.34252 36.2821Z" fill="white"/>
<path d="M2.04303 39.738L7.7183 39.8679L7.70066 40.6649L2.02539 40.535L2.04303 39.738ZM6.95176 40.24L7.70868 40.2576L7.64453 43.0479L6.88762 43.0303L6.95176 40.24Z" fill="white"/>
<path d="M2.14895 46.0084C2.10886 45.6091 2.16017 45.2531 2.30129 44.9371C2.44241 44.6212 2.66211 44.3662 2.96039 44.1706C3.25706 43.975 3.61467 43.8547 4.03162 43.813L5.63205 43.651C6.0522 43.6093 6.42585 43.6542 6.75459 43.7873C7.08334 43.9204 7.34794 44.1273 7.5516 44.4079C7.75526 44.6886 7.87553 45.0285 7.91562 45.4262C7.95571 45.8239 7.9044 46.1816 7.76328 46.4975C7.62055 46.8118 7.40246 47.0684 7.10739 47.264C6.81232 47.4597 6.45471 47.5783 6.03456 47.6216L4.43413 47.7836C4.01718 47.8253 3.64354 47.7804 3.31319 47.6473C2.98284 47.5142 2.71663 47.3073 2.51458 47.0267C2.31252 46.746 2.19064 46.4061 2.15055 46.0084H2.14895ZM2.92992 45.9298C2.9652 46.2842 3.11113 46.5568 3.36611 46.7476C3.62108 46.9385 3.94021 47.0138 4.32348 46.9754L5.97843 46.8086C6.36491 46.7701 6.66158 46.6322 6.87326 46.3948C7.08494 46.1575 7.16993 45.8624 7.13465 45.5064C7.09937 45.1536 6.95504 44.8826 6.70167 44.6902C6.4483 44.4993 6.12917 44.4224 5.7427 44.4609L4.08774 44.6276C3.70447 44.6661 3.4078 44.804 3.19612 45.043C2.98444 45.2819 2.89624 45.577 2.93313 45.9282L2.92992 45.9298Z" fill="white"/>
<path d="M2.91797 50.4873L7.99829 49.3262L8.17629 50.1024L3.09597 51.2634L2.91797 50.4873ZM7.35683 47.8268L8.09451 47.6584L8.98613 51.5633L8.24846 51.7317L7.35683 47.8268Z" fill="white"/>
<path d="M4.35051 55.6332C4.21259 55.2564 4.1741 54.8988 4.23504 54.5572C4.29598 54.2172 4.44512 53.9141 4.68406 53.6511C4.923 53.3881 5.24052 53.1845 5.63341 53.0418L7.14404 52.4917C7.54014 52.3474 7.91378 52.2993 8.26498 52.3474C8.61618 52.3955 8.92408 52.5302 9.19028 52.7515C9.45488 52.9728 9.65694 53.2727 9.79325 53.6495C9.93116 54.0264 9.96965 54.384 9.90871 54.7256C9.84777 55.0656 9.69863 55.367 9.46129 55.63C9.22235 55.893 8.90644 56.0967 8.51034 56.241L6.99971 56.7911C6.60522 56.9338 6.23317 56.9819 5.88037 56.9354C5.52757 56.8873 5.21968 56.7526 4.95347 56.5313C4.68887 56.31 4.48681 56.0101 4.35051 55.6332ZM5.08818 55.3654C5.21005 55.7006 5.41853 55.9283 5.71199 56.0502C6.00546 56.1721 6.3326 56.1673 6.69502 56.0342L8.25696 55.4649C8.62099 55.3318 8.87597 55.1249 9.0219 54.8443C9.16783 54.562 9.17905 54.2541 9.05718 53.919C8.9353 53.587 8.72843 53.3577 8.43657 53.2358C8.14311 53.1123 7.81596 53.1171 7.45033 53.2502L5.88839 53.8195C5.52597 53.951 5.2726 54.1595 5.12667 54.4417C4.98073 54.724 4.9679 55.0319 5.08978 55.3654H5.08818Z" fill="white"/>
<path d="M5.79004 59.0426L10.7998 56.3726L11.1718 57.0717L6.16208 59.7418L5.79004 59.0426ZM6.00974 59.4564L6.66081 59.11L7.38405 60.4666C7.5829 60.8387 7.79458 61.0648 8.01909 61.1434C8.2436 61.222 8.47292 61.1995 8.70545 61.076L8.71507 61.0712C8.96363 60.9381 9.1256 60.7665 9.20418 60.5564C9.28115 60.3448 9.23946 60.0882 9.0791 59.7851L8.26445 58.2552L8.89789 57.9169L9.71253 59.4467C9.85045 59.7065 10.0172 59.8701 10.2097 59.9358C10.4021 60.0032 10.6186 59.9727 10.8543 59.846C11.1045 59.7129 11.252 59.5397 11.2985 59.3265C11.345 59.1132 11.2889 58.8598 11.1318 58.5663L10.3684 57.1327L11.0195 56.7863L11.8518 58.3466C12.1148 58.8406 12.1885 59.2735 12.0715 59.6456C11.9544 60.0176 11.6882 60.3143 11.2761 60.534C11.0259 60.6671 10.7581 60.7168 10.4711 60.6799C10.1856 60.643 9.92902 60.4843 9.70451 60.1988C9.82318 60.534 9.81517 60.8467 9.67886 61.1386C9.54255 61.4304 9.32766 61.6549 9.03419 61.8121L9.02457 61.8169C8.61565 62.035 8.21634 62.0783 7.82505 61.9484C7.43377 61.8169 7.11785 61.5266 6.8773 61.0728L6.01455 59.4531L6.00974 59.4564Z" fill="white"/>
<path d="M8.36621 63.7093L8.97559 63.2586C9.17765 63.5329 9.4214 63.6611 9.70525 63.6419C9.98909 63.6227 10.3451 63.4559 10.7749 63.1384L13.5107 61.1194L13.9837 61.7608L11.2864 63.7526C10.6305 64.2369 10.0757 64.4806 9.62346 64.4838C9.17124 64.487 8.76712 64.2497 8.41432 63.7734L8.36781 63.7109L8.36621 63.7093ZM10.6033 66.7401L15.1704 63.3693L15.6435 64.0091L11.0764 67.38L10.6033 66.7385V66.7401ZM13.1948 61.9677L13.8041 61.5187L15.4206 63.7077L14.8112 64.1583L13.1948 61.9693V61.9677Z" fill="white"/>
<path d="M12.3486 68.8136L16.3866 64.8237L16.9463 65.3898L12.9083 69.3797L12.3486 68.8136ZM12.6196 69.0878L13.1585 68.5554L15.4501 70.8742L14.9112 71.4067L12.6196 69.0878ZM14.3548 67.3735L14.8936 66.8411L16.8837 68.8537L16.3449 69.3861L14.3548 67.3735ZM16.1188 65.6304L16.6576 65.098L18.9492 67.4168L18.4104 67.9492L16.1188 65.6304Z" fill="white"/>
<path d="M16.1309 72.486L19.5755 67.9734L20.2089 68.4561L16.7643 72.9687L16.1309 72.486ZM17.9911 70.8663L18.4513 70.265L20.9562 72.1765L20.496 72.7779L17.9911 70.8663ZM18.6935 74.4441L22.1381 69.9314L22.7715 70.4141L19.3269 74.9268L18.6935 74.4441Z" fill="white"/>
<path d="M24.6299 78.0009L23.9387 77.6224L26.0812 73.7079L26.1149 73.8426L21.5237 76.301L20.9512 75.9883L23.6758 71.0122L24.3669 71.3907L22.1924 75.3629L22.1587 75.2282L26.7884 72.7153L27.3529 73.0248L24.6283 78.0009H24.6299Z" fill="white"/>
<path d="M26.3799 78.7737L28.3668 73.4561L29.1125 73.7351L27.1256 79.0527L26.3799 78.7737ZM26.7423 78.9084L27.0069 78.1996L30.0602 79.3414L29.7956 80.0502L26.7423 78.9084ZM27.597 76.6232L27.8616 75.9144L30.5125 76.9055L30.2479 77.6143L27.597 76.6232ZM28.4646 74.3012L28.7292 73.5924L31.7825 74.7342L31.5179 75.443L28.4646 74.3012Z" fill="white"/>
<path d="M35.3983 74.9491L31.0092 81.4935L30.2715 81.3059L34.6606 74.7615L35.3983 74.9491Z" fill="white"/>
<path d="M37.2667 79.6672L39.3771 76.1504L40.1179 76.2418L39.4268 81.8754L38.6554 81.7808L39.1734 77.5616L39.1814 77.815L37.403 80.8346L36.8529 80.7673L35.8475 77.4862L35.926 77.1655L35.4081 81.3847L34.6367 81.2901L35.3279 75.6565L36.0672 75.7479L37.2651 79.6704L37.2667 79.6672Z" fill="white"/>
<path d="M41.359 81.912L41.2051 76.2367L42.0005 76.2159L42.1544 81.8896L41.359 81.912ZM41.6124 76.984L41.5916 76.2271L44.8501 76.1389L44.871 76.8958L41.6124 76.984ZM41.6798 79.4617L41.6589 78.7047L44.4877 78.6278L44.5086 79.3847L41.6798 79.4617ZM41.7455 81.9008L41.7247 81.1439L44.9832 81.0557L45.0041 81.8126L41.7455 81.9008Z" fill="white"/>
<path d="M45.3635 76.8542L45.248 76.1053L49.2074 75.4927L49.3229 76.2416L45.3635 76.8542ZM47.7016 81.471L46.9046 76.3202L47.692 76.1983L48.489 81.3492L47.7016 81.471Z" fill="white"/>
<path d="M50.3779 81.0638L50.8654 75.0341L51.5197 74.8513L55.0638 79.7552L54.2363 79.9862L51.4876 75.9995L51.2054 80.8329L50.3779 81.0638ZM50.9713 79.6045L50.7676 78.8748L53.6445 78.0714L53.8482 78.8011L50.9713 79.6061V79.6045Z" fill="white"/>
<path d="M56.2347 79.3255L55.922 78.636C56.2331 78.4948 56.4079 78.2848 56.4496 78.0025C56.4897 77.7219 56.4015 77.337 56.1802 76.8511L54.7754 73.7545L55.5002 73.4258L56.8858 76.4807C57.2225 77.2232 57.3444 77.8165 57.253 78.2607C57.1616 78.7049 56.8457 79.0497 56.3053 79.2951L56.2347 79.3271V79.3255ZM55.5403 74.2388L55.2276 73.5492L57.7052 72.4251L58.0179 73.1146L55.5403 74.2388ZM59.6665 77.7684L57.322 72.5983L58.0468 72.2695L60.3913 77.4397L59.6665 77.7684Z" fill="white"/>
<path d="M61.8425 76.6602L61.4272 76.0268C61.7126 75.8391 61.8537 75.6034 61.8505 75.3196C61.8473 75.0357 61.6998 74.6701 61.4063 74.2243L59.5381 71.3826L60.2036 70.9448L62.0446 73.748C62.492 74.4295 62.7053 74.9956 62.6828 75.4495C62.662 75.9033 62.4022 76.293 61.9067 76.6185L61.8409 76.6618L61.8425 76.6602ZM60.3672 71.7435L59.9518 71.11L62.2258 69.6154L62.6411 70.2489L60.3672 71.7435ZM64.9904 74.5915L61.873 69.848L62.5385 69.4102L65.656 74.1537L64.9904 74.5915Z" fill="white"/>
<path d="M68.6127 71.7498C68.3144 72.0176 67.9953 72.186 67.6569 72.2565C67.3185 72.3271 66.9818 72.2998 66.6498 72.1763C66.3163 72.0513 66.01 71.8332 65.7309 71.5221L64.6581 70.3241C64.3775 70.0098 64.1931 69.6811 64.1065 69.3379C64.0199 68.9947 64.0311 68.658 64.1385 68.3292C64.246 68.0005 64.4496 67.7022 64.7479 67.4344C65.0462 67.1666 65.3653 66.9982 65.7037 66.9276C66.0421 66.8571 66.3772 66.8827 66.7092 67.0062C67.0411 67.1297 67.349 67.3478 67.6297 67.6621L68.7025 68.86C68.9815 69.1727 69.1659 69.5015 69.2525 69.8463C69.3391 70.191 69.3295 70.5278 69.2221 70.8566C69.1146 71.1853 68.911 71.4836 68.6127 71.7514V71.7498ZM68.0899 71.1645C68.3561 70.9271 68.4908 70.6481 68.494 70.3306C68.4972 70.013 68.3705 69.71 68.1139 69.4229L67.0042 68.1833C66.746 67.8946 66.459 67.7343 66.1431 67.7038C65.8272 67.6733 65.5369 67.7776 65.2723 68.0149C65.0093 68.2506 64.8746 68.5281 64.8682 68.8456C64.8634 69.1631 64.9901 69.4662 65.2483 69.7549L66.358 70.9945C66.6145 71.2815 66.9016 71.4403 67.2191 71.4707C67.5366 71.5012 67.8269 71.3986 68.0899 71.1628V71.1645Z" fill="white"/>
<path d="M71.2573 69.1409L66.9082 65.4926L67.4198 64.8832L71.7688 68.5315L71.2573 69.1409ZM67.8078 65.5984L67.2273 65.1109L69.2527 62.6975L69.8332 63.185L67.8078 65.5984ZM73.3308 66.6697L68.9817 63.0214L69.4933 62.4104L73.8423 66.0587L73.3308 66.6697Z" fill="white"/>
<path d="M74.9491 64.5063L70.127 61.5107L70.5471 60.834L75.3692 63.8296L74.9491 64.5063ZM73.2957 62.9957L72.6527 62.5964L73.6101 61.0537C73.748 60.8324 73.7816 60.6079 73.7127 60.3786C73.6437 60.1509 73.485 59.9584 73.2364 59.8045C72.9846 59.6473 72.7409 59.5896 72.5051 59.6281C72.2694 59.6666 72.0834 59.7964 71.9455 60.0178L70.9881 61.5604L70.3451 61.1611L71.288 59.6425C71.4692 59.3506 71.6889 59.1341 71.9455 58.9946C72.2021 58.8551 72.4795 58.7926 72.7746 58.8086C73.0696 58.8262 73.3679 58.9273 73.6662 59.1117C73.9629 59.2961 74.1842 59.5174 74.3301 59.774C74.476 60.0322 74.5434 60.3064 74.5305 60.5983C74.5177 60.8901 74.4199 61.182 74.2387 61.4739L73.2957 62.9925V62.9957Z" fill="white"/>
<path d="M78.5066 58.1816C78.3431 58.5472 78.1218 58.8327 77.8427 59.0363C77.5637 59.24 77.2462 59.3522 76.8902 59.3747C76.5358 59.3972 76.1669 59.325 75.7837 59.1534L74.3147 58.4991C73.9298 58.3275 73.6268 58.103 73.4071 57.824C73.1874 57.5449 73.0591 57.2338 73.0238 56.8907C72.9869 56.5475 73.0511 56.1915 73.213 55.8259C73.375 55.4602 73.5979 55.1748 73.8769 54.9711C74.156 54.7675 74.4735 54.6552 74.8279 54.6311C75.1823 54.6071 75.5511 54.6809 75.936 54.8524L77.4049 55.5067C77.7882 55.6767 78.0897 55.9012 78.311 56.1803C78.5323 56.4593 78.6606 56.7704 78.6959 57.1152C78.7327 57.4584 78.6686 57.8144 78.5066 58.18V58.1816ZM77.7898 57.8625C77.9341 57.5369 77.9437 57.2274 77.8171 56.9372C77.6904 56.6453 77.4514 56.4224 77.0986 56.2652L75.5784 55.5885C75.224 55.4314 74.8968 55.4025 74.597 55.5051C74.2971 55.6062 74.0742 55.821 73.9298 56.1466C73.7855 56.4705 73.7759 56.7784 73.901 57.0703C74.0261 57.3621 74.2666 57.5866 74.6194 57.7454L76.1397 58.4205C76.4909 58.5777 76.818 58.605 77.1195 58.5023C77.421 58.3997 77.6439 58.188 77.7882 57.8641L77.7898 57.8625Z" fill="white"/>
<path d="M79.8377 54.7257L74.3789 53.167L74.597 52.402L80.0558 53.9608L79.8377 54.7273V54.7257ZM78.0272 52.2673L77.2446 52.4614L75.2352 50.173L75.5095 49.2124L78.0272 52.2657V52.2673ZM77.5974 53.6833L76.8694 53.4749L77.3569 51.767L78.0849 51.9755L77.5974 53.6833ZM80.7293 51.6066L77.8363 52.6362L77.6343 51.852L81.0324 50.545L80.7293 51.6066Z" fill="white"/>
<path d="M81.1809 49.8138L75.8408 46.9722L75.9322 46.2986L81.84 44.9949L81.723 45.8464L76.973 46.7845L81.2964 48.9639L81.1809 49.8154V49.8138ZM80.0776 48.6897L79.3271 48.587L79.7312 45.6283L80.4817 45.7309L80.0776 48.6897Z" fill="white"/>
<path d="M76.922 44.565L76.165 44.5521L76.234 40.5479L76.9909 40.5607L76.922 44.565ZM81.8676 43.0463L76.6558 42.9565L76.6702 42.1595L81.882 42.2493L81.8676 43.0463Z" fill="white"/>
<path d="M76.7346 37.6662L75.9873 37.7881L75.4854 34.7251L76.2326 34.6033L76.7346 37.6662ZM81.6513 37.2509L76.0498 38.1698L75.9215 37.384L81.523 36.4651L81.6513 37.2509ZM81.5856 36.8468L80.8383 36.9702L80.5448 35.179C80.4999 34.9096 80.3861 34.7139 80.2016 34.5904C80.0172 34.467 79.7767 34.4301 79.4816 34.4798C79.1833 34.5279 78.9652 34.6402 78.8289 34.8166C78.691 34.9914 78.6445 35.2143 78.6894 35.4837L78.9829 37.2749L78.2356 37.3984L77.9469 35.6344C77.8892 35.2768 77.9052 34.9625 77.9966 34.6915C78.0881 34.4205 78.2468 34.1975 78.4745 34.0244C78.7022 33.8512 78.9941 33.7357 79.3517 33.6764C79.7061 33.6186 80.0188 33.6347 80.2898 33.7261C80.5609 33.8175 80.7822 33.9779 80.9538 34.2072C81.1253 34.4365 81.2408 34.7284 81.3001 35.086L81.5888 36.85L81.5856 36.8468Z" fill="white"/>
<path d="M74.0934 29.8419L78.8819 30.1354C79.3084 30.1627 79.6548 30.2509 79.9194 30.4C80.184 30.5507 80.3684 30.7977 80.4727 31.1409L80.6619 31.7727L79.9098 31.9988L79.7206 31.367C79.6676 31.1922 79.5634 31.0671 79.4046 30.9885C79.2475 30.9116 79.0374 30.8667 78.776 30.8554L74.342 30.671L74.0918 29.8403L74.0934 29.8419ZM79.3068 30.857L75.3972 34.1798L75.1358 33.3122L78.5483 30.5459L79.3052 30.857H79.3068Z" fill="white"/>
<path d="M42.5289 72.8033C59.794 72.8033 73.7901 58.8072 73.7901 41.542C73.7901 24.2769 59.794 10.2808 42.5289 10.2808C25.2637 10.2808 11.2676 24.2769 11.2676 41.542C11.2676 58.8072 25.2637 72.8033 42.5289 72.8033Z" fill="#EDEDED"/>
<path opacity="0.4" d="M63.4793 53.2102L68.3207 55.5483L63.6894 56.6179C63.6733 56.6227 63.5402 56.6532 63.4264 56.565C63.335 56.4945 63.3173 56.395 63.3125 56.371C63.3686 55.3479 63.4232 54.3231 63.4793 53.3" fill="#51515A"/>
<path d="M41.5865 37.3035C41.7982 37.0293 43.8925 34.4025 46.8448 34.959C49.4636 35.4529 50.5124 38.0267 50.5957 38.24C51.1763 39.7362 50.8652 41.064 50.7112 41.7183C50.5444 42.4287 50.1163 44.2537 48.3603 45.4628C47.7669 45.8717 46.0302 46.8933 43.9984 46.3159C42.3226 45.8397 41.4582 44.5648 41.2193 44.2023C39.9011 42.1962 40.0406 39.3064 41.5849 37.3035H41.5865Z" stroke="#464E52" stroke-width="0.243753" stroke-linecap="round" stroke-linejoin="round"/>
<path d="M42.2809 37.7959C42.4653 37.557 44.2903 35.2686 46.8641 35.7529C49.1461 36.1827 50.0602 38.4261 50.1323 38.6122C50.6391 39.9159 50.3665 41.0721 50.2333 41.643C50.089 42.262 49.7154 43.8512 48.1839 44.9064C47.6659 45.2624 46.1537 46.1525 44.3833 45.6489C42.924 45.2336 42.1687 44.1223 41.9618 43.8079C40.812 42.06 40.9339 39.5423 42.2809 37.7959Z" stroke="#464E52" stroke-width="0.243753" stroke-linecap="round" stroke-linejoin="round"/>
<path d="M46.131 34.8837L16.576 30.4946C15.8031 30.4689 15.1071 31.2034 15.0109 31.848C14.8922 32.6482 15.415 33.4853 16.2505 33.8413C25.2357 37.998 34.3395 41.9108 43.3247 46.0675" stroke="#464E52" stroke-width="0.243753" stroke-linecap="round" stroke-linejoin="round"/>
<path d="M48.9389 60.0335L38.1625 62.0188C37.7952 62.0813 37.0896 61.5666 37.0896 61.1945L36.9453 48.9251C36.9854 48.0158 37.8626 47.307 38.464 47.2573L49.2147 46.2069C49.8947 46.1492 50.3437 46.8516 50.4255 47.5364L50.2395 58.6239C50.1352 59.3231 49.6269 59.9164 48.9373 60.0351L48.9389 60.0335Z" stroke="#464E52" stroke-width="0.243753" stroke-linecap="round" stroke-linejoin="round"/>
<path d="M48.6961 59.6453L38.8225 61.4654C38.4858 61.5231 37.8395 61.0517 37.8395 60.7101L37.708 49.4686C37.7449 48.6363 38.5483 47.9852 39.1 47.9403L48.9495 46.9781C49.5733 46.9252 49.9838 47.5699 50.0576 48.1953L49.8876 58.3527C49.793 58.9942 49.3264 59.5378 48.6945 59.6469L48.6961 59.6453Z" stroke="#464E52" stroke-width="0.243753" stroke-linecap="round" stroke-linejoin="round"/>
<path d="M37.5162 47.748L14.334 33.8044L16.0435 33.7371" stroke="#464E52" stroke-width="0.243753" stroke-linecap="round" stroke-linejoin="round"/>
<path d="M36.9451 48.9252L14.1943 34.0466L14.3339 37.5827L37.0894 61.3004" stroke="#464E52" stroke-width="0.243753" stroke-linecap="round" stroke-linejoin="round"/>
<path d="M14.3346 33.8044C14.3153 33.8109 14.2688 33.8317 14.2335 33.8798C14.1822 33.952 14.1934 34.0306 14.1966 34.0466" stroke="#464E52" stroke-width="0.243753" stroke-linecap="round" stroke-linejoin="round"/>
<path d="M49.7298 58.8516L37.709 50.6843L37.7266 51.0756L49.4155 59.2798" stroke="#464E52" stroke-width="0.243753" stroke-linecap="round" stroke-linejoin="round"/>
<path d="M50.9325 41.141V42.44L55.8573 41.9845C56.1764 41.9557 56.4506 42.2138 56.4378 42.5346L55.9038 56.8951C55.8862 57.3842 55.5253 57.7916 55.0426 57.8701L50.4258 58.6174L50.4899 59.7624L61.5326 57.612V56.5904L57.2557 57.3891C56.943 57.4468 56.6575 57.1998 56.6703 56.8823L57.2845 42.3951C57.2974 42.0759 57.5475 41.8161 57.8667 41.7889L62.4899 41.4024V40.3665L50.9309 41.1394L50.9325 41.141Z" stroke="#464E52" stroke-width="0.243753" stroke-linecap="round" stroke-linejoin="round"/>
<path d="M61.5345 56.5921L56.7861 54.2219" stroke="#464E52" stroke-width="0.243753" stroke-linecap="round" stroke-linejoin="round"/>
<path d="M55.8611 57.1566L50.3125 54.3855" stroke="#464E52" stroke-width="0.243753" stroke-linecap="round" stroke-linejoin="round"/>
<path d="M55.2966 57.7965L50.3125 54.9067" stroke="#464E52" stroke-width="0.243753" stroke-linecap="round" stroke-linejoin="round"/>
<path d="M50.426 58.6193L50.2432 58.5503" stroke="#464E52" stroke-width="0.243753" stroke-linecap="round" stroke-linejoin="round"/>
<path d="M50.4915 59.7624L49.9014 59.4353" stroke="#464E52" stroke-width="0.243753" stroke-linecap="round" stroke-linejoin="round"/>
<path d="M51.168 40.2399L60.2798 31.3622C60.53 31.1185 60.9437 31.173 61.1233 31.4729L67.129 41.5694L65.7065 41.6624L61.0239 34.0178C60.7289 33.5367 60.0633 33.455 59.6608 33.8494L52.313 41.0482L51.9313 41.0738L51.1696 40.2399H51.168Z" stroke="#464E52" stroke-width="0.243753" stroke-linecap="round" stroke-linejoin="round"/>
<path d="M65.7068 41.6639L62.4932 40.9551" stroke="#464E52" stroke-width="0.243753" stroke-linecap="round" stroke-linejoin="round"/>
<path d="M60.5311 31.2097L21.4312 29.5564L19.7266 30.9692" stroke="#464E52" stroke-width="0.243753" stroke-linecap="round" stroke-linejoin="round"/>
<path d="M69.6926 41.7168V42.1386C69.6926 42.2701 69.5916 42.3807 69.4601 42.3919L64.2002 42.8281C64.0735 42.8393 63.974 42.9404 63.9676 43.0671L63.2556 56.257C63.246 56.4253 63.3999 56.5552 63.5651 56.5184L68.2076 55.476C68.3664 55.4407 68.5171 55.561 68.5171 55.723V56.1848C68.5171 56.3067 68.4322 56.4109 68.3135 56.4334L62.4891 57.5864C62.3255 57.6185 62.1764 57.4886 62.186 57.3218L63.1017 42.137C63.1097 42.0103 63.2091 41.9076 63.3374 41.8996L69.4216 41.4602C69.5691 41.449 69.6942 41.5661 69.6942 41.7136L69.6926 41.7168Z" stroke="#464E52" stroke-width="0.243753" stroke-linecap="round" stroke-linejoin="round"/>
<path d="M62.3344 57.5719L61.5342 57.0603" stroke="#464E52" stroke-width="0.243753" stroke-linecap="round" stroke-linejoin="round"/>
<path d="M68.4605 55.5641L63.4219 53.1731" stroke="#464E52" stroke-width="0.243753" stroke-linecap="round" stroke-linejoin="round"/>
<path d="M63.1411 42.0166L61.3018 41.5034" stroke="#464E52" stroke-width="0.243753" stroke-linecap="round" stroke-linejoin="round"/>
<path d="M69.5604 41.4635L66.7812 40.9263" stroke="#464E52" stroke-width="0.243753" stroke-linecap="round" stroke-linejoin="round"/>
<path opacity="0.4" d="M42.2809 37.7962C42.4653 37.5572 44.2903 35.2688 46.8641 35.7531C49.1461 36.1829 50.0602 38.4264 50.1323 38.6124C50.6391 39.9162 50.3665 41.0724 50.2333 41.6433C50.089 42.2623 49.7154 43.8515 48.1839 44.9067C47.6659 45.2627 46.1537 46.1527 44.3833 45.6492C42.924 45.2338 42.1687 44.1225 41.9618 43.8082C40.812 42.0602 40.9339 39.5425 42.2809 37.7962Z" fill="#1D1D1B" stroke="#464E52" stroke-width="0.0898037" stroke-miterlimit="10"/>
<g opacity="0.4">
<path d="M48.6033 59.5974L38.7298 61.4175C38.393 61.4753 37.7467 61.0038 37.7467 60.6622L37.6152 49.4207C37.6521 48.5885 38.4555 47.9374 39.0072 47.8925L48.8567 46.9303C49.4805 46.8774 49.8911 47.522 49.9648 48.1475L49.7949 58.3049C49.7002 58.9463 49.2336 59.49 48.6017 59.599L48.6033 59.5974Z" fill="#1D1D1B" stroke="#464E52" stroke-width="0.0898037" stroke-miterlimit="10"/>
<path d="M50.3335 47.4869C50.3335 47.3842 50.3303 46.9416 49.9887 46.5664C49.7113 46.2601 49.3729 46.1799 49.2559 46.1558C48.3771 46.1751 47.4999 46.1943 46.6211 46.212C47.4919 45.9602 48.1012 45.5705 48.4637 45.2963C49.7129 44.3517 50.2148 43.1282 50.4377 42.5653C50.6719 41.9752 50.7841 41.4556 50.8419 41.0916V42.3905L56.0008 41.9671C56.0697 42.012 56.1627 42.0858 56.2413 42.2029C56.4225 42.4739 56.3824 42.769 56.368 42.8491C56.1836 47.5141 55.9976 52.1807 55.8131 56.8457C55.8083 56.9323 55.7779 57.237 55.5325 57.5016C55.3096 57.7421 55.0418 57.8046 54.952 57.8207C53.4125 58.0692 51.8746 58.3194 50.3351 58.568C50.2742 58.5455 50.2116 58.5231 50.1507 58.499" fill="#1D1D1B"/>
<path d="M50.3335 47.4869C50.3335 47.3842 50.3303 46.9416 49.9887 46.5664C49.7113 46.2601 49.3729 46.1799 49.2559 46.1558C48.3771 46.1751 47.4999 46.1943 46.6211 46.212C47.4919 45.9602 48.1012 45.5705 48.4637 45.2963C49.7129 44.3517 50.2148 43.1282 50.4377 42.5653C50.6719 41.9752 50.7841 41.4556 50.8419 41.0916V42.3905L56.0008 41.9671C56.0697 42.012 56.1627 42.0858 56.2413 42.2029C56.4225 42.4739 56.3824 42.769 56.368 42.8491C56.1836 47.5141 55.9976 52.1807 55.8131 56.8457C55.8083 56.9323 55.7779 57.237 55.5325 57.5016C55.3096 57.7421 55.0418 57.8046 54.952 57.8207C53.4125 58.0692 51.8746 58.3194 50.3351 58.568C50.2742 58.5455 50.2116 58.5231 50.1507 58.499" stroke="#464E52" stroke-width="0.0898037" stroke-miterlimit="10"/>
<path d="M57.1654 57.3429C56.9569 57.3653 56.7565 57.2739 56.6474 57.1072C56.5175 56.9067 56.5785 56.6918 56.5881 56.6597C56.7661 52.075 56.9441 47.4918 57.1221 42.907C57.0227 42.4547 57.1798 42.0202 57.5006 41.8245C57.7219 41.6882 57.9592 41.7058 58.0634 41.7203C59.1122 41.6321 60.161 41.5455 61.2098 41.4573L63.0491 41.9704L62.0918 57.4295L61.476 57.0142L61.4423 56.5459C60.4352 56.7335 59.4297 56.9211 58.4226 57.1088" fill="#1D1D1B"/>
<path d="M57.1654 57.3429C56.9569 57.3653 56.7565 57.2739 56.6474 57.1072C56.5175 56.9067 56.5785 56.6918 56.5881 56.6598C56.7661 52.075 56.9441 47.4918 57.1221 42.907C57.0227 42.4547 57.1798 42.0202 57.5006 41.8245C57.7219 41.6882 57.9592 41.7058 58.0634 41.7203C59.1122 41.6321 60.161 41.5455 61.2098 41.4573L63.0491 41.9704L62.0918 57.4295L61.476 57.0142L61.4423 56.5459C60.4352 56.7335 59.4297 56.9211 58.4226 57.1088" stroke="#464E52" stroke-width="0.0898037" stroke-miterlimit="10"/>
<path d="M52.3018 40.9569L59.5534 33.8528C59.5807 33.8271 59.9062 33.5256 60.3568 33.6235C60.7818 33.7149 60.9598 34.0821 60.979 34.1222C62.5201 36.6367 64.0596 39.1512 65.6007 41.6657C65.0298 41.871 64.1799 42.0859 63.1632 42.0057C62.2106 41.9303 61.4521 41.6208 61.4649 41.5551C61.4762 41.4989 62.0406 41.6849 62.3197 41.4139C62.5442 41.1942 62.4961 40.7645 62.387 40.3716" fill="#1D1D1B"/>
<path d="M52.3018 40.9569L59.5534 33.8528C59.5807 33.8271 59.9062 33.5256 60.3568 33.6235C60.7818 33.7149 60.9598 34.0821 60.979 34.1222C62.5201 36.6367 64.0596 39.1512 65.6007 41.6657C65.0298 41.871 64.1799 42.0859 63.1632 42.0057C62.2106 41.9303 61.4521 41.6208 61.4649 41.5551C61.4762 41.4989 62.0406 41.6849 62.3197 41.4139C62.5442 41.1942 62.4961 40.7645 62.387 40.3716" stroke="#464E52" stroke-width="0.0898037" stroke-miterlimit="10"/>
</g>
<path opacity="0.4" d="M50.9336 40.1501L51.9327 41.0081L50.9368 41.0738L50.9336 40.1501Z" fill="#1D1D1B" stroke="#464E52" stroke-width="0.0898037" stroke-miterlimit="10"/>
<path opacity="0.4" d="M50.3119 58.7234L50.4402 59.785L49.9014 59.4354L50.3119 58.7234Z" fill="#1D1D1B" stroke="#464E52" stroke-width="0.0898037" stroke-miterlimit="10"/>
</g>
<defs>
<clipPath id="clip0_2007_206">
<rect width="83.6345" height="83.6345" fill="white" transform="translate(0.125 0.125)"/>
</clipPath>
</defs>
</svg>
