<svg width="503" height="92" viewBox="0 0 503 92" fill="none" xmlns="http://www.w3.org/2000/svg">
<path d="M455.646 0.657227L503 91.9999H47.63L0 0.657227H455.646Z" fill="#FFC940"/>
<path d="M105.095 54.9999H101.915V38.9349L91.28 54.9999H88.1V33.3999H91.28V49.4499L101.915 33.3999H105.095V54.9999ZM115.057 55.4499C113.487 55.4499 112.077 55.1149 110.827 54.4449C109.587 53.7749 108.607 52.8499 107.887 51.6699L110.377 50.0349C110.957 50.8149 111.627 51.4199 112.387 51.8499C113.157 52.2799 114.022 52.4949 114.982 52.4949C115.982 52.4949 116.772 52.2699 117.352 51.8199C117.942 51.3599 118.237 50.7449 118.237 49.9749C118.237 49.3649 118.067 48.9149 117.727 48.6249C117.397 48.3249 116.937 48.1299 116.347 48.0399C115.767 47.9499 115.107 47.9049 114.367 47.9049H112.927V45.3849H114.367C115.347 45.3849 116.152 45.2499 116.782 44.9799C117.422 44.6999 117.742 44.1749 117.742 43.4049C117.742 42.6549 117.467 42.1149 116.917 41.7849C116.377 41.4549 115.732 41.2899 114.982 41.2899C114.142 41.2899 113.327 41.4699 112.537 41.8299C111.747 42.1799 111.057 42.6149 110.467 43.1349L108.637 40.9899C109.497 40.1599 110.477 39.5149 111.577 39.0549C112.687 38.5849 113.877 38.3499 115.147 38.3499C116.187 38.3499 117.147 38.5349 118.027 38.9049C118.917 39.2649 119.627 39.7999 120.157 40.5099C120.697 41.2199 120.967 42.0949 120.967 43.1349C120.967 43.9449 120.787 44.6849 120.427 45.3549C120.067 46.0249 119.517 46.6349 118.777 47.1849L118.687 46.1199C119.297 46.3099 119.807 46.6149 120.217 47.0349C120.627 47.4549 120.932 47.9499 121.132 48.5199C121.342 49.0799 121.447 49.6749 121.447 50.3049C121.447 51.3949 121.157 52.3249 120.577 53.0949C120.007 53.8649 119.237 54.4499 118.267 54.8499C117.297 55.2499 116.227 55.4499 115.057 55.4499ZM137.416 55.4649C135.876 55.4549 134.566 55.1199 133.486 54.4599C132.406 53.7999 131.561 52.8499 130.951 51.6099C130.351 50.3599 130.001 48.8549 129.901 47.0949C129.851 46.2449 129.856 45.3049 129.916 44.2749C129.976 43.2349 130.086 42.2299 130.246 41.2599C130.416 40.2899 130.631 39.4799 130.891 38.8299C131.181 38.1099 131.576 37.4499 132.076 36.8499C132.576 36.2399 133.126 35.7299 133.726 35.3199C134.366 34.8799 135.076 34.5399 135.856 34.2999C136.636 34.0499 137.451 33.8549 138.301 33.7149C139.161 33.5749 140.026 33.4549 140.896 33.3549C141.776 33.2449 142.631 33.1099 143.461 32.9499L143.761 35.7549C143.211 35.8849 142.561 35.9899 141.811 36.0699C141.071 36.1499 140.301 36.2399 139.501 36.3399C138.711 36.4399 137.956 36.5799 137.236 36.7599C136.516 36.9399 135.891 37.1949 135.361 37.5249C134.611 37.9849 134.036 38.6549 133.636 39.5349C133.246 40.4149 133.011 41.3699 132.931 42.3999C133.551 41.4599 134.341 40.7849 135.301 40.3749C136.261 39.9549 137.256 39.7449 138.286 39.7449C139.726 39.7449 140.966 40.0849 142.006 40.7649C143.056 41.4449 143.861 42.3699 144.421 43.5399C144.981 44.7099 145.261 46.0349 145.261 47.5149C145.261 49.1149 144.931 50.5149 144.271 51.7149C143.621 52.9049 142.706 53.8349 141.526 54.5049C140.346 55.1649 138.976 55.4849 137.416 55.4649ZM137.581 52.5099C139.021 52.5099 140.106 52.0649 140.836 51.1749C141.576 50.2849 141.946 49.0999 141.946 47.6199C141.946 46.0999 141.566 44.9049 140.806 44.0349C140.046 43.1649 138.971 42.7299 137.581 42.7299C136.171 42.7299 135.091 43.1649 134.341 44.0349C133.601 44.9049 133.231 46.0999 133.231 47.6199C133.231 49.1599 133.606 50.3599 134.356 51.2199C135.106 52.0799 136.181 52.5099 137.581 52.5099ZM154.029 33.3999H157.194L151.434 54.9999H148.269L154.029 33.3999ZM163.298 62.1999L166.433 53.6649L166.478 56.1849L159.413 38.7999H162.683L167.963 52.2249H167.003L172.043 38.7999H175.223L166.283 62.1999H163.298ZM183.564 54.9999V38.7999H186.189L192.174 50.6799L198.144 38.7999H200.784V54.9999H197.754V45.2199L192.879 54.9999H191.454L186.579 45.2199V54.9999H183.564ZM212.18 55.4499C210.57 55.4499 209.155 55.0999 207.935 54.3999C206.725 53.6899 205.78 52.7049 205.1 51.4449C204.43 50.1749 204.095 48.7049 204.095 47.0349C204.095 45.2649 204.425 43.7299 205.085 42.4299C205.755 41.1299 206.685 40.1249 207.875 39.4149C209.065 38.7049 210.45 38.3499 212.03 38.3499C213.68 38.3499 215.085 38.7349 216.245 39.5049C217.405 40.2649 218.27 41.3499 218.84 42.7599C219.42 44.1699 219.65 45.8449 219.53 47.7849H216.395V46.6449C216.375 44.7649 216.015 43.3749 215.315 42.4749C214.625 41.5749 213.57 41.1249 212.15 41.1249C210.58 41.1249 209.4 41.6199 208.61 42.6099C207.82 43.5999 207.425 45.0299 207.425 46.8999C207.425 48.6799 207.82 50.0599 208.61 51.0399C209.4 52.0099 210.54 52.4949 212.03 52.4949C213.01 52.4949 213.855 52.2749 214.565 51.8349C215.285 51.3849 215.845 50.7449 216.245 49.9149L219.32 50.8899C218.69 52.3399 217.735 53.4649 216.455 54.2649C215.175 55.0549 213.75 55.4499 212.18 55.4499ZM206.405 47.7849V45.3399H217.97V47.7849H206.405ZM226.67 54.9999V41.6199H221.135V38.7999H235.34V41.6199H229.805V54.9999H226.67ZM242.294 55.4499C241.094 55.4499 240.089 55.2299 239.279 54.7899C238.469 54.3399 237.854 53.7499 237.434 53.0199C237.024 52.2799 236.819 51.4699 236.819 50.5899C236.819 49.7699 236.964 49.0499 237.254 48.4299C237.544 47.8099 237.974 47.2849 238.544 46.8549C239.114 46.4149 239.814 46.0599 240.644 45.7899C241.364 45.5799 242.179 45.3949 243.089 45.2349C243.999 45.0749 244.954 44.9249 245.954 44.7849C246.964 44.6449 247.964 44.5049 248.954 44.3649L247.814 44.9949C247.834 43.7249 247.564 42.7849 247.004 42.1749C246.454 41.5549 245.504 41.2449 244.154 41.2449C243.304 41.2449 242.524 41.4449 241.814 41.8449C241.104 42.2349 240.609 42.8849 240.329 43.7949L237.404 42.8949C237.804 41.5049 238.564 40.3999 239.684 39.5799C240.814 38.7599 242.314 38.3499 244.184 38.3499C245.634 38.3499 246.894 38.5999 247.964 39.0999C249.044 39.5899 249.834 40.3699 250.334 41.4399C250.594 41.9699 250.754 42.5299 250.814 43.1199C250.874 43.7099 250.904 44.3449 250.904 45.0249V54.9999H248.129V51.2949L248.669 51.7749C247.999 53.0149 247.144 53.9399 246.104 54.5499C245.074 55.1499 243.804 55.4499 242.294 55.4499ZM242.849 52.8849C243.739 52.8849 244.504 52.7299 245.144 52.4199C245.784 52.0999 246.299 51.6949 246.689 51.2049C247.079 50.7149 247.334 50.2049 247.454 49.6749C247.624 49.1949 247.719 48.6549 247.739 48.0549C247.769 47.4549 247.784 46.9749 247.784 46.6149L248.804 46.9899C247.814 47.1399 246.914 47.2749 246.104 47.3949C245.294 47.5149 244.559 47.6349 243.899 47.7549C243.249 47.8649 242.669 47.9999 242.159 48.1599C241.729 48.3099 241.344 48.4899 241.004 48.6999C240.674 48.9099 240.409 49.1649 240.209 49.4649C240.019 49.7649 239.924 50.1299 239.924 50.5599C239.924 50.9799 240.029 51.3699 240.239 51.7299C240.449 52.0799 240.769 52.3599 241.199 52.5699C241.629 52.7799 242.179 52.8849 242.849 52.8849ZM253.299 54.9999V52.3449C253.899 52.4549 254.354 52.4399 254.664 52.2999C254.984 52.1499 255.219 51.8799 255.369 51.4899C255.529 51.0999 255.664 50.5949 255.774 49.9749C255.944 49.0649 256.089 48.0299 256.209 46.8699C256.339 45.6999 256.454 44.4349 256.554 43.0749C256.654 41.7149 256.744 40.2899 256.824 38.7999H268.464V54.9999H265.314V41.7549H259.644C259.584 42.5449 259.514 43.3849 259.434 44.2749C259.364 45.1549 259.284 46.0299 259.194 46.8999C259.104 47.7699 259.009 48.5849 258.909 49.3449C258.809 50.1049 258.704 50.7549 258.594 51.2949C258.394 52.3749 258.099 53.2349 257.709 53.8749C257.329 54.5049 256.789 54.9099 256.089 55.0899C255.389 55.2799 254.459 55.2499 253.299 54.9999ZM271.17 54.9999V52.3449C271.77 52.4549 272.225 52.4399 272.535 52.2999C272.855 52.1499 273.09 51.8799 273.24 51.4899C273.4 51.0999 273.535 50.5949 273.645 49.9749C273.815 49.0649 273.96 48.0299 274.08 46.8699C274.21 45.6999 274.325 44.4349 274.425 43.0749C274.525 41.7149 274.615 40.2899 274.695 38.7999H286.335V54.9999H283.185V41.7549H277.515C277.455 42.5449 277.385 43.3849 277.305 44.2749C277.235 45.1549 277.155 46.0299 277.065 46.8999C276.975 47.7699 276.88 48.5849 276.78 49.3449C276.68 50.1049 276.575 50.7549 276.465 51.2949C276.265 52.3749 275.97 53.2349 275.58 53.8749C275.2 54.5049 274.66 54.9099 273.96 55.0899C273.26 55.2799 272.33 55.2499 271.17 54.9999ZM297.576 55.4499C295.956 55.4499 294.551 55.0849 293.361 54.3549C292.171 53.6249 291.251 52.6199 290.601 51.3399C289.961 50.0499 289.641 48.5649 289.641 46.8849C289.641 45.1949 289.971 43.7099 290.631 42.4299C291.291 41.1399 292.216 40.1399 293.406 39.4299C294.596 38.7099 295.986 38.3499 297.576 38.3499C299.196 38.3499 300.601 38.7149 301.791 39.4449C302.981 40.1749 303.901 41.1799 304.551 42.4599C305.201 43.7399 305.526 45.2149 305.526 46.8849C305.526 48.5749 305.196 50.0649 304.536 51.3549C303.886 52.6349 302.966 53.6399 301.776 54.3699C300.586 55.0899 299.186 55.4499 297.576 55.4499ZM297.576 52.4949C299.126 52.4949 300.281 51.9749 301.041 50.9349C301.811 49.8849 302.196 48.5349 302.196 46.8849C302.196 45.1949 301.806 43.8449 301.026 42.8349C300.256 41.8149 299.106 41.3049 297.576 41.3049C296.526 41.3049 295.661 41.5449 294.981 42.0249C294.301 42.4949 293.796 43.1499 293.466 43.9899C293.136 44.8199 292.971 45.7849 292.971 46.8849C292.971 48.5849 293.361 49.9449 294.141 50.9649C294.921 51.9849 296.066 52.4949 297.576 52.4949ZM308.808 54.9999V38.7999H322.473V54.9999H319.338V41.7549H311.943V54.9999H308.808ZM334.269 55.4499C332.719 55.4499 331.419 55.0749 330.369 54.3249C329.319 53.5649 328.524 52.5399 327.984 51.2499C327.444 49.9599 327.174 48.5049 327.174 46.8849C327.174 45.2649 327.439 43.8099 327.969 42.5199C328.509 41.2299 329.299 40.2149 330.339 39.4749C331.389 38.7249 332.679 38.3499 334.209 38.3499C335.729 38.3499 337.039 38.7249 338.139 39.4749C339.249 40.2149 340.104 41.2299 340.704 42.5199C341.304 43.7999 341.604 45.2549 341.604 46.8849C341.604 48.5049 341.304 49.9649 340.704 51.2649C340.114 52.5549 339.269 53.5749 338.169 54.3249C337.079 55.0749 335.779 55.4499 334.269 55.4499ZM326.649 62.1999V38.7999H329.439V50.4549H329.799V62.1999H326.649ZM333.834 52.6149C334.834 52.6149 335.659 52.3599 336.309 51.8499C336.969 51.3399 337.459 50.6549 337.779 49.7949C338.109 48.9249 338.274 47.9549 338.274 46.8849C338.274 45.8249 338.109 44.8649 337.779 44.0049C337.459 43.1449 336.964 42.4599 336.294 41.9499C335.624 41.4399 334.769 41.1849 333.729 41.1849C332.749 41.1849 331.939 41.4249 331.299 41.9049C330.669 42.3849 330.199 43.0549 329.889 43.9149C329.589 44.7749 329.439 45.7649 329.439 46.8849C329.439 48.0049 329.589 48.9949 329.889 49.8549C330.189 50.7149 330.664 51.3899 331.314 51.8799C331.964 52.3699 332.804 52.6149 333.834 52.6149ZM351.951 55.4499C350.331 55.4499 348.926 55.0849 347.736 54.3549C346.546 53.6249 345.626 52.6199 344.976 51.3399C344.336 50.0499 344.016 48.5649 344.016 46.8849C344.016 45.1949 344.346 43.7099 345.006 42.4299C345.666 41.1399 346.591 40.1399 347.781 39.4299C348.971 38.7099 350.361 38.3499 351.951 38.3499C353.571 38.3499 354.976 38.7149 356.166 39.4449C357.356 40.1749 358.276 41.1799 358.926 42.4599C359.576 43.7399 359.901 45.2149 359.901 46.8849C359.901 48.5749 359.571 50.0649 358.911 51.3549C358.261 52.6349 357.341 53.6399 356.151 54.3699C354.961 55.0899 353.561 55.4499 351.951 55.4499ZM351.951 52.4949C353.501 52.4949 354.656 51.9749 355.416 50.9349C356.186 49.8849 356.571 48.5349 356.571 46.8849C356.571 45.1949 356.181 43.8449 355.401 42.8349C354.631 41.8149 353.481 41.3049 351.951 41.3049C350.901 41.3049 350.036 41.5449 349.356 42.0249C348.676 42.4949 348.171 43.1499 347.841 43.9899C347.511 44.8199 347.346 45.7849 347.346 46.8849C347.346 48.5849 347.736 49.9449 348.516 50.9649C349.296 51.9849 350.441 52.4949 351.951 52.4949ZM363.183 54.9999L363.198 38.7999H366.378V46.5999L372.738 38.7999H376.728L370.008 46.8999L377.418 54.9999H373.158L366.378 47.1999V54.9999H363.183ZM383.505 55.4499C382.305 55.4499 381.3 55.2299 380.49 54.7899C379.68 54.3399 379.065 53.7499 378.645 53.0199C378.235 52.2799 378.03 51.4699 378.03 50.5899C378.03 49.7699 378.175 49.0499 378.465 48.4299C378.755 47.8099 379.185 47.2849 379.755 46.8549C380.325 46.4149 381.025 46.0599 381.855 45.7899C382.575 45.5799 383.39 45.3949 384.3 45.2349C385.21 45.0749 386.165 44.9249 387.165 44.7849C388.175 44.6449 389.175 44.5049 390.165 44.3649L389.025 44.9949C389.045 43.7249 388.775 42.7849 388.215 42.1749C387.665 41.5549 386.715 41.2449 385.365 41.2449C384.515 41.2449 383.735 41.4449 383.025 41.8449C382.315 42.2349 381.82 42.8849 381.54 43.7949L378.615 42.8949C379.015 41.5049 379.775 40.3999 380.895 39.5799C382.025 38.7599 383.525 38.3499 385.395 38.3499C386.845 38.3499 388.105 38.5999 389.175 39.0999C390.255 39.5899 391.045 40.3699 391.545 41.4399C391.805 41.9699 391.965 42.5299 392.025 43.1199C392.085 43.7099 392.115 44.3449 392.115 45.0249V54.9999H389.34V51.2949L389.88 51.7749C389.21 53.0149 388.355 53.9399 387.315 54.5499C386.285 55.1499 385.015 55.4499 383.505 55.4499ZM384.06 52.8849C384.95 52.8849 385.715 52.7299 386.355 52.4199C386.995 52.0999 387.51 51.6949 387.9 51.2049C388.29 50.7149 388.545 50.2049 388.665 49.6749C388.835 49.1949 388.93 48.6549 388.95 48.0549C388.98 47.4549 388.995 46.9749 388.995 46.6149L390.015 46.9899C389.025 47.1399 388.125 47.2749 387.315 47.3949C386.505 47.5149 385.77 47.6349 385.11 47.7549C384.46 47.8649 383.88 47.9999 383.37 48.1599C382.94 48.3099 382.555 48.4899 382.215 48.6999C381.885 48.9099 381.62 49.1649 381.42 49.4649C381.23 49.7649 381.135 50.1299 381.135 50.5599C381.135 50.9799 381.24 51.3699 381.45 51.7299C381.66 52.0799 381.98 52.3599 382.41 52.5699C382.84 52.7799 383.39 52.8849 384.06 52.8849ZM400.195 54.9999V41.6199H394.66V38.7999H408.865V41.6199H403.33V54.9999H400.195ZM415.82 55.4499C414.62 55.4499 413.615 55.2299 412.805 54.7899C411.995 54.3399 411.38 53.7499 410.96 53.0199C410.55 52.2799 410.345 51.4699 410.345 50.5899C410.345 49.7699 410.49 49.0499 410.78 48.4299C411.07 47.8099 411.5 47.2849 412.07 46.8549C412.64 46.4149 413.34 46.0599 414.17 45.7899C414.89 45.5799 415.705 45.3949 416.615 45.2349C417.525 45.0749 418.48 44.9249 419.48 44.7849C420.49 44.6449 421.49 44.5049 422.48 44.3649L421.34 44.9949C421.36 43.7249 421.09 42.7849 420.53 42.1749C419.98 41.5549 419.03 41.2449 417.68 41.2449C416.83 41.2449 416.05 41.4449 415.34 41.8449C414.63 42.2349 414.135 42.8849 413.855 43.7949L410.93 42.8949C411.33 41.5049 412.09 40.3999 413.21 39.5799C414.34 38.7599 415.84 38.3499 417.71 38.3499C419.16 38.3499 420.42 38.5999 421.49 39.0999C422.57 39.5899 423.36 40.3699 423.86 41.4399C424.12 41.9699 424.28 42.5299 424.34 43.1199C424.4 43.7099 424.43 44.3449 424.43 45.0249V54.9999H421.655V51.2949L422.195 51.7749C421.525 53.0149 420.67 53.9399 419.63 54.5499C418.6 55.1499 417.33 55.4499 415.82 55.4499ZM416.375 52.8849C417.265 52.8849 418.03 52.7299 418.67 52.4199C419.31 52.0999 419.825 51.6949 420.215 51.2049C420.605 50.7149 420.86 50.2049 420.98 49.6749C421.15 49.1949 421.245 48.6549 421.265 48.0549C421.295 47.4549 421.31 46.9749 421.31 46.6149L422.33 46.9899C421.34 47.1399 420.44 47.2749 419.63 47.3949C418.82 47.5149 418.085 47.6349 417.425 47.7549C416.775 47.8649 416.195 47.9999 415.685 48.1599C415.255 48.3099 414.87 48.4899 414.53 48.6999C414.2 48.9099 413.935 49.1649 413.735 49.4649C413.545 49.7649 413.45 50.1299 413.45 50.5599C413.45 50.9799 413.555 51.3699 413.765 51.7299C413.975 52.0799 414.295 52.3599 414.725 52.5699C415.155 52.7799 415.705 52.8849 416.375 52.8849Z" fill="#232323"/>
</svg>
